# Blender 3.4.0
# www.blender.org
mtllib capsule.mtl
o Cylinder
v 0.000000 -1.000000 -1.000000
v 0.000000 1.000000 -1.000000
v 0.195090 -1.000000 -0.980785
v 0.195090 1.000000 -0.980785
v 0.382683 -1.000000 -0.923880
v 0.382683 1.000000 -0.923880
v 0.555570 -1.000000 -0.831470
v 0.555570 1.000000 -0.831470
v 0.707107 -1.000000 -0.707107
v 0.707107 1.000000 -0.707107
v 0.831470 -1.000000 -0.555570
v 0.831470 1.000000 -0.555570
v 0.923880 -1.000000 -0.382683
v 0.923880 1.000000 -0.382683
v 0.980785 -1.000000 -0.195090
v 0.980785 1.000000 -0.195090
v 1.000000 -1.000000 0.000000
v 1.000000 1.000000 0.000000
v 0.980785 -1.000000 0.195090
v 0.980785 1.000000 0.195090
v 0.923880 -1.000000 0.382683
v 0.923880 1.000000 0.382683
v 0.831470 -1.000000 0.555570
v 0.831470 1.000000 0.555570
v 0.707107 -1.000000 0.707107
v 0.707107 1.000000 0.707107
v 0.555570 -1.000000 0.831470
v 0.555570 1.000000 0.831470
v 0.382683 -1.000000 0.923880
v 0.382683 1.000000 0.923880
v 0.195090 -1.000000 0.980785
v 0.195090 1.000000 0.980785
v 0.000000 -1.000000 1.000000
v 0.000000 1.000000 1.000000
v -0.195090 -1.000000 0.980785
v -0.195090 1.000000 0.980785
v -0.382683 -1.000000 0.923880
v -0.382683 1.000000 0.923880
v -0.555570 -1.000000 0.831470
v -0.555570 1.000000 0.831470
v -0.707107 -1.000000 0.707107
v -0.707107 1.000000 0.707107
v -0.831470 -1.000000 0.555570
v -0.831470 1.000000 0.555570
v -0.923880 -1.000000 0.382683
v -0.923880 1.000000 0.382683
v -0.980785 -1.000000 0.195090
v -0.980785 1.000000 0.195090
v -1.000000 -1.000000 0.000000
v -1.000000 1.000000 0.000000
v -0.980785 -1.000000 -0.195090
v -0.980785 1.000000 -0.195090
v -0.923880 -1.000000 -0.382683
v -0.923880 1.000000 -0.382683
v -0.831470 -1.000000 -0.555570
v -0.831470 1.000000 -0.555570
v -0.707107 -1.000000 -0.707107
v -0.707107 1.000000 -0.707107
v -0.555570 -1.000000 -0.831470
v -0.555570 1.000000 -0.831470
v -0.382683 -1.000000 -0.923880
v -0.382683 1.000000 -0.923880
v -0.195090 -1.000000 -0.980785
v -0.195090 1.000000 -0.980785
vn 0.0980 -0.0000 -0.9952
vn 0.2903 -0.0000 -0.9569
vn 0.4714 -0.0000 -0.8819
vn 0.6344 -0.0000 -0.7730
vn 0.7730 -0.0000 -0.6344
vn 0.8819 -0.0000 -0.4714
vn 0.9569 -0.0000 -0.2903
vn 0.9952 -0.0000 -0.0980
vn 0.9952 -0.0000 0.0980
vn 0.9569 -0.0000 0.2903
vn 0.8819 -0.0000 0.4714
vn 0.7730 -0.0000 0.6344
vn 0.6344 -0.0000 0.7730
vn 0.4714 -0.0000 0.8819
vn 0.2903 -0.0000 0.9569
vn 0.0980 -0.0000 0.9952
vn -0.0980 -0.0000 0.9952
vn -0.2903 -0.0000 0.9569
vn -0.4714 -0.0000 0.8819
vn -0.6344 -0.0000 0.7730
vn -0.7730 -0.0000 0.6344
vn -0.8819 -0.0000 0.4714
vn -0.9569 -0.0000 0.2903
vn -0.9952 -0.0000 0.0980
vn -0.9952 -0.0000 -0.0980
vn -0.9569 -0.0000 -0.2903
vn -0.8819 -0.0000 -0.4714
vn -0.7730 -0.0000 -0.6344
vn -0.6344 -0.0000 -0.7730
vn -0.4714 -0.0000 -0.8819
vn -0.2903 -0.0000 -0.9569
vn -0.0980 -0.0000 -0.9952
vt 1.000000 0.500000
vt 0.000000 0.500000
vt 1.000000 1.000000
vt 0.000000 1.000000
vt 0.968750 0.500000
vt 0.968750 1.000000
vt 0.937500 0.500000
vt 0.937500 1.000000
vt 0.906250 0.500000
vt 0.906250 1.000000
vt 0.875000 0.500000
vt 0.875000 1.000000
vt 0.843750 0.500000
vt 0.843750 1.000000
vt 0.812500 0.500000
vt 0.812500 1.000000
vt 0.781250 0.500000
vt 0.781250 1.000000
vt 0.750000 0.500000
vt 0.750000 1.000000
vt 0.718750 0.500000
vt 0.718750 1.000000
vt 0.687500 0.500000
vt 0.687500 1.000000
vt 0.656250 0.500000
vt 0.656250 1.000000
vt 0.625000 0.500000
vt 0.625000 1.000000
vt 0.593750 0.500000
vt 0.593750 1.000000
vt 0.562500 0.500000
vt 0.562500 1.000000
vt 0.531250 0.500000
vt 0.531250 1.000000
vt 0.500000 0.500000
vt 0.500000 1.000000
vt 0.468750 0.500000
vt 0.468750 1.000000
vt 0.437500 0.500000
vt 0.437500 1.000000
vt 0.406250 0.500000
vt 0.406250 1.000000
vt 0.375000 0.500000
vt 0.375000 1.000000
vt 0.343750 0.500000
vt 0.343750 1.000000
vt 0.312500 0.500000
vt 0.312500 1.000000
vt 0.281250 0.500000
vt 0.281250 1.000000
vt 0.250000 0.500000
vt 0.250000 1.000000
vt 0.218750 0.500000
vt 0.218750 1.000000
vt 0.187500 0.500000
vt 0.187500 1.000000
vt 0.156250 0.500000
vt 0.156250 1.000000
vt 0.125000 0.500000
vt 0.125000 1.000000
vt 0.093750 0.500000
vt 0.093750 1.000000
vt 0.062500 0.500000
vt 0.062500 1.000000
vt 0.031250 0.500000
vt 0.031250 1.000000
s 0
f 1/1/1 2/3/1 4/6/1 3/5/1
f 3/5/2 4/6/2 6/8/2 5/7/2
f 5/7/3 6/8/3 8/10/3 7/9/3
f 7/9/4 8/10/4 10/12/4 9/11/4
f 9/11/5 10/12/5 12/14/5 11/13/5
f 11/13/6 12/14/6 14/16/6 13/15/6
f 13/15/7 14/16/7 16/18/7 15/17/7
f 15/17/8 16/18/8 18/20/8 17/19/8
f 17/19/9 18/20/9 20/22/9 19/21/9
f 19/21/10 20/22/10 22/24/10 21/23/10
f 21/23/11 22/24/11 24/26/11 23/25/11
f 23/25/12 24/26/12 26/28/12 25/27/12
f 25/27/13 26/28/13 28/30/13 27/29/13
f 27/29/14 28/30/14 30/32/14 29/31/14
f 29/31/15 30/32/15 32/34/15 31/33/15
f 31/33/16 32/34/16 34/36/16 33/35/16
f 33/35/17 34/36/17 36/38/17 35/37/17
f 35/37/18 36/38/18 38/40/18 37/39/18
f 37/39/19 38/40/19 40/42/19 39/41/19
f 39/41/20 40/42/20 42/44/20 41/43/20
f 41/43/21 42/44/21 44/46/21 43/45/21
f 43/45/22 44/46/22 46/48/22 45/47/22
f 45/47/23 46/48/23 48/50/23 47/49/23
f 47/49/24 48/50/24 50/52/24 49/51/24
f 49/51/25 50/52/25 52/54/25 51/53/25
f 51/53/26 52/54/26 54/56/26 53/55/26
f 53/55/27 54/56/27 56/58/27 55/57/27
f 55/57/28 56/58/28 58/60/28 57/59/28
f 57/59/29 58/60/29 60/62/29 59/61/29
f 59/61/30 60/62/30 62/64/30 61/63/30
f 61/63/31 62/64/31 64/66/31 63/65/31
f 63/65/32 64/66/32 2/4/32 1/2/32
o Sphere
v 0.000000 1.831470 -0.555570
v 0.000000 1.555570 -0.831470
v 0.000000 1.195090 -0.980785
v 0.000000 1.000000 -1.000000
v 0.038060 1.980785 -0.191342
v 0.074658 1.923880 -0.375330
v 0.108386 1.831470 -0.544895
v 0.137950 1.707107 -0.693520
v 0.162212 1.555570 -0.815493
v 0.180240 1.382684 -0.906127
v 0.191342 1.195090 -0.961940
v 0.195090 1.000000 -0.980785
v 0.074658 1.980785 -0.180240
v 0.146447 1.923880 -0.353553
v 0.212608 1.831470 -0.513280
v 0.270598 1.707107 -0.653281
v 0.318190 1.555570 -0.768178
v 0.353553 1.382684 -0.853553
v 0.375330 1.195090 -0.906127
v 0.382683 1.000000 -0.923879
v 0.108386 1.980785 -0.162212
v 0.212608 1.923880 -0.318190
v 0.308658 1.831470 -0.461940
v 0.392847 1.707107 -0.587938
v 0.461940 1.555570 -0.691342
v 0.513280 1.382684 -0.768178
v 0.544895 1.195090 -0.815493
v 0.555570 1.000000 -0.831469
v 0.137950 1.980785 -0.137950
v 0.270598 1.923880 -0.270598
v 0.392847 1.831470 -0.392847
v 0.500000 1.707107 -0.500000
v 0.587938 1.555570 -0.587938
v 0.653281 1.382684 -0.653281
v 0.693520 1.195090 -0.693520
v 0.707107 1.000000 -0.707107
v 0.162212 1.980785 -0.108386
v 0.318190 1.923880 -0.212608
v 0.461940 1.831470 -0.308658
v 0.587938 1.707107 -0.392847
v 0.691342 1.555570 -0.461940
v 0.768178 1.382684 -0.513280
v 0.815493 1.195090 -0.544895
v 0.831470 1.000000 -0.555570
v 0.000000 2.000000 0.000000
v 0.180240 1.980785 -0.074658
v 0.353553 1.923880 -0.146447
v 0.513280 1.831470 -0.212607
v 0.653281 1.707107 -0.270598
v 0.768178 1.555570 -0.318190
v 0.853553 1.382684 -0.353553
v 0.906127 1.195090 -0.375330
v 0.923879 1.000000 -0.382683
v 0.191342 1.980785 -0.038060
v 0.375330 1.923880 -0.074658
v 0.544895 1.831470 -0.108386
v 0.693520 1.707107 -0.137950
v 0.815493 1.555570 -0.162212
v 0.906127 1.382684 -0.180240
v 0.961940 1.195090 -0.191342
v 0.980785 1.000000 -0.195090
v 0.195090 1.980785 0.000000
v 0.382683 1.923880 0.000000
v 0.555570 1.831470 0.000000
v 0.707107 1.707107 -0.000000
v 0.831469 1.555570 0.000000
v 0.923879 1.382684 -0.000000
v 0.980785 1.195090 0.000000
v 1.000000 1.000000 0.000000
v 0.191342 1.980785 0.038060
v 0.375330 1.923880 0.074658
v 0.544895 1.831470 0.108386
v 0.693520 1.707107 0.137950
v 0.815493 1.555570 0.162212
v 0.906127 1.382684 0.180240
v 0.961940 1.195090 0.191342
v 0.980785 1.000000 0.195090
v 0.180240 1.980785 0.074658
v 0.353553 1.923880 0.146447
v 0.513280 1.831470 0.212608
v 0.653281 1.707107 0.270598
v 0.768178 1.555570 0.318190
v 0.853553 1.382684 0.353553
v 0.906127 1.195090 0.375330
v 0.923879 1.000000 0.382683
v 0.162212 1.980785 0.108386
v 0.318190 1.923880 0.212608
v 0.461940 1.831470 0.308658
v 0.587938 1.707107 0.392847
v 0.691341 1.555570 0.461940
v 0.768178 1.382684 0.513280
v 0.815493 1.195090 0.544895
v 0.831469 1.000000 0.555570
v 0.137950 1.980785 0.137950
v 0.270598 1.923880 0.270598
v 0.392847 1.831470 0.392847
v 0.500000 1.707107 0.500000
v 0.587938 1.555570 0.587938
v 0.653281 1.382684 0.653281
v 0.693520 1.195090 0.693520
v 0.707106 1.000000 0.707107
v 0.108386 1.980785 0.162212
v 0.212607 1.923880 0.318190
v 0.308658 1.831470 0.461940
v 0.392847 1.707107 0.587938
v 0.461940 1.555570 0.691342
v 0.513280 1.382684 0.768178
v 0.544895 1.195090 0.815493
v 0.555570 1.000000 0.831469
v 0.074658 1.980785 0.180240
v 0.146447 1.923880 0.353553
v 0.212607 1.831470 0.513280
v 0.270598 1.707107 0.653281
v 0.318189 1.555570 0.768178
v 0.353553 1.382684 0.853553
v 0.375330 1.195090 0.906127
v 0.382683 1.000000 0.923879
v 0.038060 1.980785 0.191342
v 0.074658 1.923880 0.375330
v 0.108386 1.831470 0.544895
v 0.137950 1.707107 0.693520
v 0.162212 1.555570 0.815493
v 0.180240 1.382684 0.906127
v 0.191342 1.195090 0.961939
v 0.195090 1.000000 0.980785
v -0.000000 1.980785 0.195090
v -0.000000 1.923880 0.382683
v -0.000000 1.831470 0.555570
v -0.000000 1.707107 0.707107
v -0.000000 1.555570 0.831469
v 0.000000 1.382684 0.923879
v -0.000000 1.195090 0.980785
v -0.000000 1.000000 0.999999
v -0.038060 1.980785 0.191342
v -0.074658 1.923880 0.375330
v -0.108386 1.831470 0.544895
v -0.137950 1.707107 0.693520
v -0.162212 1.555570 0.815493
v -0.180240 1.382684 0.906127
v -0.191342 1.195090 0.961939
v -0.195091 1.000000 0.980785
v -0.074658 1.980785 0.180240
v -0.146447 1.923880 0.353553
v -0.212608 1.831470 0.513280
v -0.270598 1.707107 0.653281
v -0.318190 1.555570 0.768177
v -0.353553 1.382684 0.853553
v -0.375330 1.195090 0.906127
v -0.382683 1.000000 0.923879
v -0.108386 1.980785 0.162212
v -0.212608 1.923880 0.318190
v -0.308658 1.831470 0.461939
v -0.392847 1.707107 0.587938
v -0.461940 1.555570 0.691341
v -0.513280 1.382684 0.768178
v -0.544895 1.195090 0.815493
v -0.555570 1.000000 0.831469
v -0.137950 1.980785 0.137950
v -0.270598 1.923880 0.270598
v -0.392847 1.831470 0.392847
v -0.500000 1.707107 0.500000
v -0.587938 1.555570 0.587937
v -0.653281 1.382684 0.653281
v -0.693520 1.195090 0.693520
v -0.707106 1.000000 0.707106
v -0.162212 1.980785 0.108386
v -0.318190 1.923880 0.212607
v -0.461940 1.831470 0.308658
v -0.587938 1.707107 0.392847
v -0.691341 1.555570 0.461939
v -0.768177 1.382684 0.513280
v -0.815493 1.195090 0.544895
v -0.831469 1.000000 0.555569
v -0.180240 1.980785 0.074658
v -0.353553 1.923880 0.146447
v -0.513280 1.831470 0.212607
v -0.653281 1.707107 0.270598
v -0.768177 1.555570 0.318189
v -0.853553 1.382684 0.353553
v -0.906127 1.195090 0.375330
v -0.923879 1.000000 0.382683
v -0.191342 1.980785 0.038060
v -0.375330 1.923880 0.074658
v -0.544895 1.831470 0.108386
v -0.693520 1.707107 0.137950
v -0.815493 1.555570 0.162211
v -0.906127 1.382684 0.180240
v -0.961939 1.195090 0.191341
v -0.980784 1.000000 0.195090
v -0.195090 1.980785 -0.000000
v -0.382683 1.923880 -0.000000
v -0.555570 1.831470 -0.000000
v -0.707107 1.707107 -0.000000
v -0.831469 1.555570 -0.000000
v -0.923879 1.382684 -0.000000
v -0.980785 1.195090 -0.000000
v -0.999999 1.000000 -0.000000
v -0.191342 1.980785 -0.038060
v -0.375330 1.923880 -0.074658
v -0.544895 1.831470 -0.108386
v -0.693520 1.707107 -0.137950
v -0.815493 1.555570 -0.162212
v -0.906127 1.382684 -0.180240
v -0.961939 1.195090 -0.191342
v -0.980784 1.000000 -0.195091
v -0.180240 1.980785 -0.074658
v -0.353553 1.923880 -0.146447
v -0.513279 1.831470 -0.212607
v -0.653281 1.707107 -0.270598
v -0.768177 1.555570 -0.318190
v -0.853553 1.382684 -0.353553
v -0.906127 1.195090 -0.375330
v -0.923878 1.000000 -0.382683
v -0.162212 1.980785 -0.108386
v -0.318189 1.923880 -0.212607
v -0.461939 1.831470 -0.308658
v -0.587938 1.707107 -0.392847
v -0.691341 1.555570 -0.461940
v -0.768177 1.382684 -0.513280
v -0.815493 1.195090 -0.544895
v -0.831468 1.000000 -0.555570
v -0.137950 1.980785 -0.137950
v -0.270598 1.923880 -0.270598
v -0.392847 1.831470 -0.392847
v -0.500000 1.707107 -0.500000
v -0.587937 1.555570 -0.587938
v -0.653281 1.382684 -0.653281
v -0.693519 1.195090 -0.693520
v -0.707106 1.000000 -0.707106
v -0.108386 1.980785 -0.162212
v -0.212607 1.923880 -0.318190
v -0.308658 1.831470 -0.461939
v -0.392847 1.707107 -0.587938
v -0.461939 1.555570 -0.691341
v -0.513280 1.382684 -0.768177
v -0.544895 1.195090 -0.815493
v -0.555569 1.000000 -0.831469
v -0.074658 1.980785 -0.180240
v -0.146446 1.923880 -0.353553
v -0.212607 1.831470 -0.513279
v -0.270598 1.707107 -0.653281
v -0.318189 1.555570 -0.768177
v -0.353553 1.382684 -0.853553
v -0.375330 1.195090 -0.906127
v -0.382683 1.000000 -0.923879
v -0.038060 1.980785 -0.191342
v -0.074658 1.923880 -0.375330
v -0.108386 1.831470 -0.544895
v -0.137950 1.707107 -0.693520
v -0.162211 1.555570 -0.815493
v -0.180240 1.382684 -0.906127
v -0.191341 1.195090 -0.961939
v -0.195090 1.000000 -0.980784
v 0.000000 1.980785 -0.195090
v 0.000000 1.923880 -0.382683
v 0.000000 1.707107 -0.707107
v 0.000000 1.382684 -0.923879
vn 0.0938 0.2890 -0.9527
vn 0.0975 0.0975 -0.9904
vn 0.0097 0.9951 -0.0980
vn 0.0286 0.9565 -0.2902
vn 0.0464 0.8810 -0.4709
vn 0.0624 0.7715 -0.6332
vn 0.0759 0.6326 -0.7708
vn 0.0865 0.4696 -0.8786
vn 0.2563 0.4696 -0.8448
vn 0.2779 0.2890 -0.9161
vn 0.2889 0.0976 -0.9524
vn 0.0286 0.9951 -0.0942
vn 0.0846 0.9565 -0.2790
vn 0.1374 0.8810 -0.4528
vn 0.1847 0.7715 -0.6088
vn 0.2248 0.6326 -0.7412
vn 0.1374 0.9565 -0.2571
vn 0.2230 0.8810 -0.4173
vn 0.2999 0.7715 -0.5611
vn 0.3651 0.6326 -0.6831
vn 0.4162 0.4696 -0.7786
vn 0.4513 0.2890 -0.8443
vn 0.4691 0.0975 -0.8777
vn 0.0464 0.9951 -0.0869
vn 0.5601 0.4696 -0.6825
vn 0.6073 0.2890 -0.7400
vn 0.6314 0.0975 -0.7693
vn 0.0625 0.9951 -0.0761
vn 0.1850 0.9565 -0.2254
vn 0.3002 0.8810 -0.3658
vn 0.4036 0.7715 -0.4918
vn 0.4913 0.6326 -0.5987
vn 0.3658 0.8810 -0.3002
vn 0.4918 0.7715 -0.4036
vn 0.5987 0.6326 -0.4913
vn 0.6825 0.4696 -0.5601
vn 0.7400 0.2890 -0.6073
vn 0.7693 0.0975 -0.6314
vn 0.0761 0.9951 -0.0625
vn 0.2254 0.9565 -0.1850
vn 0.8443 0.2890 -0.4513
vn 0.8777 0.0975 -0.4691
vn 0.0869 0.9951 -0.0464
vn 0.2571 0.9565 -0.1374
vn 0.4173 0.8810 -0.2230
vn 0.5611 0.7715 -0.2999
vn 0.6831 0.6326 -0.3651
vn 0.7786 0.4696 -0.4162
vn 0.4528 0.8810 -0.1374
vn 0.6088 0.7715 -0.1847
vn 0.7412 0.6326 -0.2248
vn 0.8448 0.4696 -0.2563
vn 0.9161 0.2890 -0.2779
vn 0.9524 0.0975 -0.2889
vn 0.0942 0.9951 -0.0286
vn 0.2790 0.9565 -0.0846
vn 0.9527 0.2890 -0.0938
vn 0.9904 0.0975 -0.0975
vn 0.0980 0.9951 -0.0097
vn 0.2902 0.9565 -0.0286
vn 0.4709 0.8810 -0.0464
vn 0.6332 0.7715 -0.0624
vn 0.7708 0.6326 -0.0759
vn 0.8786 0.4696 -0.0865
vn 0.6332 0.7715 0.0624
vn 0.7708 0.6326 0.0759
vn 0.8786 0.4696 0.0865
vn 0.9527 0.2890 0.0938
vn 0.9904 0.0975 0.0976
vn 0.0980 0.9951 0.0097
vn 0.2902 0.9565 0.0286
vn 0.4709 0.8810 0.0464
vn 0.9524 0.0975 0.2889
vn 0.0942 0.9951 0.0286
vn 0.2790 0.9565 0.0846
vn 0.4528 0.8810 0.1374
vn 0.6088 0.7715 0.1847
vn 0.7412 0.6326 0.2248
vn 0.8448 0.4696 0.2563
vn 0.9161 0.2890 0.2779
vn 0.6831 0.6326 0.3651
vn 0.7786 0.4696 0.4162
vn 0.8443 0.2890 0.4513
vn 0.8777 0.0975 0.4691
vn 0.0869 0.9951 0.0464
vn 0.2571 0.9565 0.1374
vn 0.4173 0.8810 0.2230
vn 0.5611 0.7715 0.2999
vn 0.0761 0.9951 0.0625
vn 0.2254 0.9565 0.1850
vn 0.3658 0.8810 0.3002
vn 0.4918 0.7715 0.4036
vn 0.5987 0.6326 0.4913
vn 0.6825 0.4696 0.5601
vn 0.7400 0.2890 0.6073
vn 0.7693 0.0975 0.6314
vn 0.4913 0.6326 0.5987
vn 0.5601 0.4696 0.6825
vn 0.6073 0.2890 0.7400
vn 0.6314 0.0975 0.7693
vn 0.0625 0.9951 0.0761
vn 0.1850 0.9565 0.2254
vn 0.3002 0.8810 0.3658
vn 0.4036 0.7715 0.4918
vn 0.1374 0.9565 0.2571
vn 0.2230 0.8810 0.4173
vn 0.2999 0.7715 0.5611
vn 0.3651 0.6326 0.6831
vn 0.4162 0.4696 0.7786
vn 0.4513 0.2890 0.8443
vn 0.4691 0.0975 0.8777
vn 0.0464 0.9951 0.0869
vn 0.2563 0.4696 0.8448
vn 0.2779 0.2890 0.9161
vn 0.2889 0.0975 0.9524
vn 0.0286 0.9951 0.0942
vn 0.0846 0.9565 0.2790
vn 0.1374 0.8810 0.4528
vn 0.1847 0.7715 0.6088
vn 0.2248 0.6326 0.7412
vn 0.0286 0.9565 0.2902
vn 0.0464 0.8810 0.4709
vn 0.0624 0.7715 0.6332
vn 0.0759 0.6326 0.7708
vn 0.0865 0.4696 0.8786
vn 0.0938 0.2890 0.9527
vn 0.0975 0.0975 0.9904
vn 0.0097 0.9951 0.0980
vn -0.0865 0.4696 0.8786
vn -0.0938 0.2890 0.9527
vn -0.0976 0.0975 0.9904
vn -0.0097 0.9951 0.0980
vn -0.0286 0.9565 0.2902
vn -0.0464 0.8810 0.4709
vn -0.0624 0.7715 0.6332
vn -0.0759 0.6326 0.7708
vn -0.1374 0.8810 0.4528
vn -0.1847 0.7715 0.6088
vn -0.2248 0.6326 0.7412
vn -0.2563 0.4696 0.8448
vn -0.2779 0.2890 0.9161
vn -0.2889 0.0975 0.9524
vn -0.0286 0.9951 0.0942
vn -0.0846 0.9565 0.2790
vn -0.4513 0.2890 0.8443
vn -0.4691 0.0975 0.8777
vn -0.0464 0.9951 0.0869
vn -0.1374 0.9565 0.2571
vn -0.2230 0.8810 0.4173
vn -0.2999 0.7715 0.5611
vn -0.3651 0.6326 0.6831
vn -0.4162 0.4696 0.7786
vn -0.4036 0.7715 0.4918
vn -0.4913 0.6326 0.5987
vn -0.5601 0.4696 0.6825
vn -0.6073 0.2890 0.7400
vn -0.6314 0.0975 0.7693
vn -0.0625 0.9951 0.0761
vn -0.1850 0.9565 0.2254
vn -0.3002 0.8810 0.3658
vn -0.7693 0.0975 0.6314
vn -0.0761 0.9951 0.0625
vn -0.2254 0.9565 0.1850
vn -0.3658 0.8810 0.3002
vn -0.4918 0.7715 0.4036
vn -0.5987 0.6326 0.4913
vn -0.6825 0.4696 0.5601
vn -0.7400 0.2890 0.6073
vn -0.5611 0.7715 0.2999
vn -0.6831 0.6326 0.3651
vn -0.7786 0.4696 0.4162
vn -0.8443 0.2890 0.4513
vn -0.8777 0.0975 0.4691
vn -0.0869 0.9951 0.0464
vn -0.2571 0.9565 0.1374
vn -0.4173 0.8810 0.2230
vn -0.9524 0.0975 0.2889
vn -0.0942 0.9951 0.0286
vn -0.2790 0.9565 0.0846
vn -0.4528 0.8810 0.1374
vn -0.6088 0.7715 0.1847
vn -0.7412 0.6326 0.2248
vn -0.8448 0.4696 0.2563
vn -0.9161 0.2890 0.2779
vn -0.7708 0.6326 0.0759
vn -0.8786 0.4696 0.0865
vn -0.9527 0.2890 0.0938
vn -0.9904 0.0975 0.0975
vn -0.0980 0.9951 0.0097
vn -0.2902 0.9565 0.0286
vn -0.4709 0.8810 0.0464
vn -0.6332 0.7715 0.0624
vn -0.0980 0.9951 -0.0097
vn -0.2902 0.9565 -0.0286
vn -0.4709 0.8810 -0.0464
vn -0.6332 0.7715 -0.0624
vn -0.7708 0.6326 -0.0759
vn -0.8786 0.4696 -0.0865
vn -0.9527 0.2890 -0.0938
vn -0.9904 0.0975 -0.0976
vn -0.7412 0.6326 -0.2248
vn -0.8448 0.4696 -0.2563
vn -0.9161 0.2890 -0.2779
vn -0.9524 0.0975 -0.2889
vn -0.0942 0.9951 -0.0286
vn -0.2790 0.9565 -0.0846
vn -0.4528 0.8810 -0.1374
vn -0.6088 0.7715 -0.1847
vn -0.2571 0.9565 -0.1374
vn -0.4173 0.8810 -0.2231
vn -0.5611 0.7715 -0.2999
vn -0.6831 0.6326 -0.3651
vn -0.7786 0.4696 -0.4162
vn -0.8443 0.2890 -0.4513
vn -0.8777 0.0975 -0.4691
vn -0.0869 0.9951 -0.0464
vn -0.6825 0.4696 -0.5601
vn -0.7400 0.2890 -0.6073
vn -0.7693 0.0975 -0.6314
vn -0.0761 0.9951 -0.0625
vn -0.2254 0.9565 -0.1850
vn -0.3658 0.8810 -0.3002
vn -0.4918 0.7715 -0.4036
vn -0.5987 0.6326 -0.4913
vn -0.3002 0.8810 -0.3658
vn -0.4036 0.7715 -0.4918
vn -0.4913 0.6326 -0.5987
vn -0.5601 0.4696 -0.6825
vn -0.6073 0.2890 -0.7400
vn -0.6314 0.0975 -0.7693
vn -0.0625 0.9951 -0.0761
vn -0.1850 0.9565 -0.2254
vn -0.4513 0.2890 -0.8443
vn -0.4691 0.0975 -0.8777
vn -0.0464 0.9951 -0.0869
vn -0.1374 0.9565 -0.2571
vn -0.2230 0.8810 -0.4173
vn -0.2999 0.7715 -0.5611
vn -0.3651 0.6326 -0.6831
vn -0.4162 0.4696 -0.7786
vn -0.1374 0.8810 -0.4528
vn -0.1847 0.7715 -0.6088
vn -0.2248 0.6326 -0.7412
vn -0.2563 0.4696 -0.8448
vn -0.2779 0.2890 -0.9161
vn -0.2889 0.0975 -0.9524
vn -0.0286 0.9951 -0.0942
vn -0.0846 0.9565 -0.2790
vn -0.0938 0.2890 -0.9527
vn -0.0976 0.0975 -0.9904
vn -0.0097 0.9951 -0.0980
vn -0.0286 0.9565 -0.2902
vn -0.0464 0.8810 -0.4709
vn -0.0624 0.7715 -0.6332
vn -0.0759 0.6326 -0.7708
vn -0.0865 0.4696 -0.8786
vt 0.750000 0.812500
vt 0.750000 0.687500
vt 0.750000 0.562500
vt 0.750000 0.500000
vt 0.718750 0.937500
vt 0.718750 0.875000
vt 0.718750 0.812500
vt 0.718750 0.750000
vt 0.718750 0.687500
vt 0.718750 0.625000
vt 0.718750 0.562500
vt 0.718750 0.500000
vt 0.687500 0.937500
vt 0.687500 0.875000
vt 0.687500 0.812500
vt 0.687500 0.750000
vt 0.687500 0.687500
vt 0.687500 0.625000
vt 0.687500 0.562500
vt 0.687500 0.500000
vt 0.656250 0.937500
vt 0.656250 0.875000
vt 0.656250 0.812500
vt 0.656250 0.750000
vt 0.656250 0.687500
vt 0.656250 0.625000
vt 0.656250 0.562500
vt 0.656250 0.500000
vt 0.625000 0.937500
vt 0.625000 0.875000
vt 0.625000 0.812500
vt 0.625000 0.750000
vt 0.625000 0.687500
vt 0.625000 0.625000
vt 0.625000 0.562500
vt 0.625000 0.500000
vt 0.593750 0.937500
vt 0.593750 0.875000
vt 0.593750 0.812500
vt 0.593750 0.750000
vt 0.593750 0.687500
vt 0.593750 0.625000
vt 0.593750 0.562500
vt 0.593750 0.500000
vt 0.734375 1.000000
vt 0.703125 1.000000
vt 0.671875 1.000000
vt 0.640625 1.000000
vt 0.609375 1.000000
vt 0.578125 1.000000
vt 0.546875 1.000000
vt 0.515625 1.000000
vt 0.484375 1.000000
vt 0.453125 1.000000
vt 0.421875 1.000000
vt 0.390625 1.000000
vt 0.359375 1.000000
vt 0.328125 1.000000
vt 0.296875 1.000000
vt 0.265625 1.000000
vt 0.234375 1.000000
vt 0.203125 1.000000
vt 0.171875 1.000000
vt 0.140625 1.000000
vt 0.109375 1.000000
vt 0.078125 1.000000
vt 0.046875 1.000000
vt 0.015625 1.000000
vt 0.984375 1.000000
vt 0.953125 1.000000
vt 0.921875 1.000000
vt 0.890625 1.000000
vt 0.859375 1.000000
vt 0.828125 1.000000
vt 0.796875 1.000000
vt 0.765625 1.000000
vt 0.562500 0.937500
vt 0.562500 0.875000
vt 0.562500 0.812500
vt 0.562500 0.750000
vt 0.562500 0.687500
vt 0.562500 0.625000
vt 0.562500 0.562500
vt 0.562500 0.500000
vt 0.531250 0.937500
vt 0.531250 0.875000
vt 0.531250 0.812500
vt 0.531250 0.750000
vt 0.531250 0.687500
vt 0.531250 0.625000
vt 0.531250 0.562500
vt 0.531250 0.500000
vt 0.500000 0.937500
vt 0.500000 0.875000
vt 0.500000 0.812500
vt 0.500000 0.750000
vt 0.500000 0.687500
vt 0.500000 0.625000
vt 0.500000 0.562500
vt 0.500000 0.500000
vt 0.468750 0.937500
vt 0.468750 0.875000
vt 0.468750 0.812500
vt 0.468750 0.750000
vt 0.468750 0.687500
vt 0.468750 0.625000
vt 0.468750 0.562500
vt 0.468750 0.500000
vt 0.437500 0.937500
vt 0.437500 0.875000
vt 0.437500 0.812500
vt 0.437500 0.750000
vt 0.437500 0.687500
vt 0.437500 0.625000
vt 0.437500 0.562500
vt 0.437500 0.500000
vt 0.406250 0.937500
vt 0.406250 0.875000
vt 0.406250 0.812500
vt 0.406250 0.750000
vt 0.406250 0.687500
vt 0.406250 0.625000
vt 0.406250 0.562500
vt 0.406250 0.500000
vt 0.375000 0.937500
vt 0.375000 0.875000
vt 0.375000 0.812500
vt 0.375000 0.750000
vt 0.375000 0.687500
vt 0.375000 0.625000
vt 0.375000 0.562500
vt 0.375000 0.500000
vt 0.343750 0.937500
vt 0.343750 0.875000
vt 0.343750 0.812500
vt 0.343750 0.750000
vt 0.343750 0.687500
vt 0.343750 0.625000
vt 0.343750 0.562500
vt 0.343750 0.500000
vt 0.312500 0.937500
vt 0.312500 0.875000
vt 0.312500 0.812500
vt 0.312500 0.750000
vt 0.312500 0.687500
vt 0.312500 0.625000
vt 0.312500 0.562500
vt 0.312500 0.500000
vt 0.281250 0.937500
vt 0.281250 0.875000
vt 0.281250 0.812500
vt 0.281250 0.750000
vt 0.281250 0.687500
vt 0.281250 0.625000
vt 0.281250 0.562500
vt 0.281250 0.500000
vt 0.250000 0.937500
vt 0.250000 0.875000
vt 0.250000 0.812500
vt 0.250000 0.750000
vt 0.250000 0.687500
vt 0.250000 0.625000
vt 0.250000 0.562500
vt 0.250000 0.500000
vt 0.218750 0.937500
vt 0.218750 0.875000
vt 0.218750 0.812500
vt 0.218750 0.750000
vt 0.218750 0.687500
vt 0.218750 0.625000
vt 0.218750 0.562500
vt 0.218750 0.500000
vt 0.187500 0.937500
vt 0.187500 0.875000
vt 0.187500 0.812500
vt 0.187500 0.750000
vt 0.187500 0.687500
vt 0.187500 0.625000
vt 0.187500 0.562500
vt 0.187500 0.500000
vt 0.156250 0.937500
vt 0.156250 0.875000
vt 0.156250 0.812500
vt 0.156250 0.750000
vt 0.156250 0.687500
vt 0.156250 0.625000
vt 0.156250 0.562500
vt 0.156250 0.500000
vt 0.125000 0.937500
vt 0.125000 0.875000
vt 0.125000 0.812500
vt 0.125000 0.750000
vt 0.125000 0.687500
vt 0.125000 0.625000
vt 0.125000 0.562500
vt 0.125000 0.500000
vt 0.093750 0.937500
vt 0.093750 0.875000
vt 0.093750 0.812500
vt 0.093750 0.750000
vt 0.093750 0.687500
vt 0.093750 0.625000
vt 0.093750 0.562500
vt 0.093750 0.500000
vt 0.062500 0.937500
vt 0.062500 0.875000
vt 0.062500 0.812500
vt 0.062500 0.750000
vt 0.062500 0.687500
vt 0.062500 0.625000
vt 0.062500 0.562500
vt 0.062500 0.500000
vt 0.031250 0.937500
vt 0.031250 0.875000
vt 0.031250 0.812500
vt 0.031250 0.750000
vt 0.031250 0.687500
vt 0.031250 0.625000
vt 0.031250 0.562500
vt 0.031250 0.500000
vt 0.000000 0.937500
vt 1.000000 0.937500
vt 0.000000 0.875000
vt 1.000000 0.875000
vt 0.000000 0.812500
vt 1.000000 0.812500
vt 0.000000 0.750000
vt 1.000000 0.750000
vt 0.000000 0.687500
vt 1.000000 0.687500
vt 0.000000 0.625000
vt 1.000000 0.625000
vt 0.000000 0.562500
vt 1.000000 0.562500
vt 0.000000 0.500000
vt 1.000000 0.500000
vt 0.968750 0.937500
vt 0.968750 0.875000
vt 0.968750 0.812500
vt 0.968750 0.750000
vt 0.968750 0.687500
vt 0.968750 0.625000
vt 0.968750 0.562500
vt 0.968750 0.500000
vt 0.937500 0.937500
vt 0.937500 0.875000
vt 0.937500 0.812500
vt 0.937500 0.750000
vt 0.937500 0.687500
vt 0.937500 0.625000
vt 0.937500 0.562500
vt 0.937500 0.500000
vt 0.906250 0.937500
vt 0.906250 0.875000
vt 0.906250 0.812500
vt 0.906250 0.750000
vt 0.906250 0.687500
vt 0.906250 0.625000
vt 0.906250 0.562500
vt 0.906250 0.500000
vt 0.875000 0.937500
vt 0.875000 0.875000
vt 0.875000 0.812500
vt 0.875000 0.750000
vt 0.875000 0.687500
vt 0.875000 0.625000
vt 0.875000 0.562500
vt 0.875000 0.500000
vt 0.843750 0.937500
vt 0.843750 0.875000
vt 0.843750 0.812500
vt 0.843750 0.750000
vt 0.843750 0.687500
vt 0.843750 0.625000
vt 0.843750 0.562500
vt 0.843750 0.500000
vt 0.812500 0.937500
vt 0.812500 0.875000
vt 0.812500 0.812500
vt 0.812500 0.750000
vt 0.812500 0.687500
vt 0.812500 0.625000
vt 0.812500 0.562500
vt 0.812500 0.500000
vt 0.781250 0.937500
vt 0.781250 0.875000
vt 0.781250 0.812500
vt 0.781250 0.750000
vt 0.781250 0.687500
vt 0.781250 0.625000
vt 0.781250 0.562500
vt 0.781250 0.500000
vt 0.750000 0.937500
vt 0.750000 0.875000
vt 0.750000 0.750000
vt 0.750000 0.625000
s 0
f 67/69/33 321/362/33 74/76/33 75/77/33
f 68/70/34 67/69/34 75/77/34 76/78/34
f 318/359/35 109/111/35 69/71/35
f 319/360/36 318/359/36 69/71/36 70/72/36
f 65/67/37 319/360/37 70/72/37 71/73/37
f 320/361/38 65/67/38 71/73/38 72/74/38
f 66/68/39 320/361/39 72/74/39 73/75/39
f 321/362/40 66/68/40 73/75/40 74/76/40
f 74/76/41 73/75/41 81/83/41 82/84/41
f 75/77/42 74/76/42 82/84/42 83/85/42
f 76/78/43 75/77/43 83/85/43 84/86/43
f 69/71/44 109/112/44 77/79/44
f 70/72/45 69/71/45 77/79/45 78/80/45
f 71/73/46 70/72/46 78/80/46 79/81/46
f 72/74/47 71/73/47 79/81/47 80/82/47
f 73/75/48 72/74/48 80/82/48 81/83/48
f 78/80/49 77/79/49 85/87/49 86/88/49
f 79/81/50 78/80/50 86/88/50 87/89/50
f 80/82/51 79/81/51 87/89/51 88/90/51
f 81/83/52 80/82/52 88/90/52 89/91/52
f 82/84/53 81/83/53 89/91/53 90/92/53
f 83/85/54 82/84/54 90/92/54 91/93/54
f 84/86/55 83/85/55 91/93/55 92/94/55
f 77/79/56 109/113/56 85/87/56
f 90/92/57 89/91/57 97/99/57 98/100/57
f 91/93/58 90/92/58 98/100/58 99/101/58
f 92/94/59 91/93/59 99/101/59 100/102/59
f 85/87/60 109/114/60 93/95/60
f 86/88/61 85/87/61 93/95/61 94/96/61
f 87/89/62 86/88/62 94/96/62 95/97/62
f 88/90/63 87/89/63 95/97/63 96/98/63
f 89/91/64 88/90/64 96/98/64 97/99/64
f 95/97/65 94/96/65 102/104/65 103/105/65
f 96/98/66 95/97/66 103/105/66 104/106/66
f 97/99/67 96/98/67 104/106/67 105/107/67
f 98/100/68 97/99/68 105/107/68 106/108/68
f 99/101/69 98/100/69 106/108/69 107/109/69
f 100/102/70 99/101/70 107/109/70 108/110/70
f 93/95/71 109/115/71 101/103/71
f 94/96/72 93/95/72 101/103/72 102/104/72
f 107/109/73 106/108/73 115/148/73 116/149/73
f 108/110/74 107/109/74 116/149/74 117/150/74
f 101/103/75 109/116/75 110/143/75
f 102/104/76 101/103/76 110/143/76 111/144/76
f 103/105/77 102/104/77 111/144/77 112/145/77
f 104/106/78 103/105/78 112/145/78 113/146/78
f 105/107/79 104/106/79 113/146/79 114/147/79
f 106/108/80 105/107/80 114/147/80 115/148/80
f 112/145/81 111/144/81 119/152/81 120/153/81
f 113/146/82 112/145/82 120/153/82 121/154/82
f 114/147/83 113/146/83 121/154/83 122/155/83
f 115/148/84 114/147/84 122/155/84 123/156/84
f 116/149/85 115/148/85 123/156/85 124/157/85
f 117/150/86 116/149/86 124/157/86 125/158/86
f 110/143/87 109/117/87 118/151/87
f 111/144/88 110/143/88 118/151/88 119/152/88
f 124/157/89 123/156/89 131/164/89 132/165/89
f 125/158/90 124/157/90 132/165/90 133/166/90
f 118/151/91 109/118/91 126/159/91
f 119/152/92 118/151/92 126/159/92 127/160/92
f 120/153/93 119/152/93 127/160/93 128/161/93
f 121/154/94 120/153/94 128/161/94 129/162/94
f 122/155/95 121/154/95 129/162/95 130/163/95
f 123/156/96 122/155/96 130/163/96 131/164/96
f 129/162/97 128/161/97 136/169/97 137/170/97
f 130/163/98 129/162/98 137/170/98 138/171/98
f 131/164/99 130/163/99 138/171/99 139/172/99
f 132/165/100 131/164/100 139/172/100 140/173/100
f 133/166/101 132/165/101 140/173/101 141/174/101
f 126/159/102 109/119/102 134/167/102
f 127/160/103 126/159/103 134/167/103 135/168/103
f 128/161/104 127/160/104 135/168/104 136/169/104
f 141/174/105 140/173/105 148/181/105 149/182/105
f 134/167/106 109/120/106 142/175/106
f 135/168/107 134/167/107 142/175/107 143/176/107
f 136/169/108 135/168/108 143/176/108 144/177/108
f 137/170/109 136/169/109 144/177/109 145/178/109
f 138/171/110 137/170/110 145/178/110 146/179/110
f 139/172/111 138/171/111 146/179/111 147/180/111
f 140/173/112 139/172/112 147/180/112 148/181/112
f 146/179/113 145/178/113 153/186/113 154/187/113
f 147/180/114 146/179/114 154/187/114 155/188/114
f 148/181/115 147/180/115 155/188/115 156/189/115
f 149/182/116 148/181/116 156/189/116 157/190/116
f 142/175/117 109/121/117 150/183/117
f 143/176/118 142/175/118 150/183/118 151/184/118
f 144/177/119 143/176/119 151/184/119 152/185/119
f 145/178/120 144/177/120 152/185/120 153/186/120
f 150/183/121 109/122/121 158/191/121
f 151/184/122 150/183/122 158/191/122 159/192/122
f 152/185/123 151/184/123 159/192/123 160/193/123
f 153/186/124 152/185/124 160/193/124 161/194/124
f 154/187/125 153/186/125 161/194/125 162/195/125
f 155/188/126 154/187/126 162/195/126 163/196/126
f 156/189/127 155/188/127 163/196/127 164/197/127
f 157/190/128 156/189/128 164/197/128 165/198/128
f 162/195/129 161/194/129 169/202/129 170/203/129
f 163/196/130 162/195/130 170/203/130 171/204/130
f 164/197/131 163/196/131 171/204/131 172/205/131
f 165/198/132 164/197/132 172/205/132 173/206/132
f 158/191/133 109/123/133 166/199/133
f 159/192/134 158/191/134 166/199/134 167/200/134
f 160/193/135 159/192/135 167/200/135 168/201/135
f 161/194/136 160/193/136 168/201/136 169/202/136
f 167/200/137 166/199/137 174/207/137 175/208/137
f 168/201/138 167/200/138 175/208/138 176/209/138
f 169/202/139 168/201/139 176/209/139 177/210/139
f 170/203/140 169/202/140 177/210/140 178/211/140
f 171/204/141 170/203/141 178/211/141 179/212/141
f 172/205/142 171/204/142 179/212/142 180/213/142
f 173/206/143 172/205/143 180/213/143 181/214/143
f 166/199/144 109/124/144 174/207/144
f 179/212/145 178/211/145 186/219/145 187/220/145
f 180/213/146 179/212/146 187/220/146 188/221/146
f 181/214/147 180/213/147 188/221/147 189/222/147
f 174/207/148 109/125/148 182/215/148
f 175/208/149 174/207/149 182/215/149 183/216/149
f 176/209/150 175/208/150 183/216/150 184/217/150
f 177/210/151 176/209/151 184/217/151 185/218/151
f 178/211/152 177/210/152 185/218/152 186/219/152
f 183/216/153 182/215/153 190/223/153 191/224/153
f 184/217/154 183/216/154 191/224/154 192/225/154
f 185/218/155 184/217/155 192/225/155 193/226/155
f 186/219/156 185/218/156 193/226/156 194/227/156
f 187/220/157 186/219/157 194/227/157 195/228/157
f 188/221/158 187/220/158 195/228/158 196/229/158
f 189/222/159 188/221/159 196/229/159 197/230/159
f 182/215/160 109/126/160 190/223/160
f 195/228/161 194/227/161 202/235/161 203/236/161
f 196/229/162 195/228/162 203/236/162 204/237/162
f 197/230/163 196/229/163 204/237/163 205/238/163
f 190/223/164 109/127/164 198/231/164
f 191/224/165 190/223/165 198/231/165 199/232/165
f 192/225/166 191/224/166 199/232/166 200/233/166
f 193/226/167 192/225/167 200/233/167 201/234/167
f 194/227/168 193/226/168 201/234/168 202/235/168
f 200/233/169 199/232/169 207/240/169 208/241/169
f 201/234/170 200/233/170 208/241/170 209/242/170
f 202/235/171 201/234/171 209/242/171 210/243/171
f 203/236/172 202/235/172 210/243/172 211/244/172
f 204/237/173 203/236/173 211/244/173 212/245/173
f 205/238/174 204/237/174 212/245/174 213/246/174
f 198/231/175 109/128/175 206/239/175
f 199/232/176 198/231/176 206/239/176 207/240/176
f 212/245/177 211/244/177 219/252/177 220/253/177
f 213/246/178 212/245/178 220/253/178 221/254/178
f 206/239/179 109/129/179 214/247/179
f 207/240/180 206/239/180 214/247/180 215/248/180
f 208/241/181 207/240/181 215/248/181 216/249/181
f 209/242/182 208/241/182 216/249/182 217/250/182
f 210/243/183 209/242/183 217/250/183 218/251/183
f 211/244/184 210/243/184 218/251/184 219/252/184
f 217/250/185 216/249/185 224/257/185 225/258/185
f 218/251/186 217/250/186 225/258/186 226/259/186
f 219/252/187 218/251/187 226/259/187 227/260/187
f 220/253/188 219/252/188 227/260/188 228/261/188
f 221/254/189 220/253/189 228/261/189 229/262/189
f 214/247/190 109/130/190 222/255/190
f 215/248/191 214/247/191 222/255/191 223/256/191
f 216/249/192 215/248/192 223/256/192 224/257/192
f 229/262/193 228/261/193 236/269/193 237/270/193
f 222/255/194 109/131/194 230/263/194
f 223/256/195 222/255/195 230/263/195 231/264/195
f 224/257/196 223/256/196 231/264/196 232/265/196
f 225/258/197 224/257/197 232/265/197 233/266/197
f 226/259/198 225/258/198 233/266/198 234/267/198
f 227/260/199 226/259/199 234/267/199 235/268/199
f 228/261/200 227/260/200 235/268/200 236/269/200
f 233/266/201 232/265/201 240/273/201 241/274/201
f 234/267/202 233/266/202 241/274/202 242/275/202
f 235/268/203 234/267/203 242/275/203 243/276/203
f 236/269/204 235/268/204 243/276/204 244/277/204
f 237/270/205 236/269/205 244/277/205 245/278/205
f 230/263/206 109/132/206 238/271/206
f 231/264/207 230/263/207 238/271/207 239/272/207
f 232/265/208 231/264/208 239/272/208 240/273/208
f 245/278/209 244/277/209 252/285/209 253/286/209
f 238/271/210 109/133/210 246/279/210
f 239/272/211 238/271/211 246/279/211 247/280/211
f 240/273/212 239/272/212 247/280/212 248/281/212
f 241/274/213 240/273/213 248/281/213 249/282/213
f 242/275/214 241/274/214 249/282/214 250/283/214
f 243/276/215 242/275/215 250/283/215 251/284/215
f 244/277/216 243/276/216 251/284/216 252/285/216
f 250/283/217 249/282/217 257/293/217 258/295/217
f 251/284/218 250/283/218 258/295/218 259/297/218
f 252/285/219 251/284/219 259/297/219 260/299/219
f 253/286/220 252/285/220 260/299/220 261/301/220
f 246/279/221 109/134/221 254/287/221
f 247/280/222 246/279/222 254/287/222 255/289/222
f 248/281/223 247/280/223 255/289/223 256/291/223
f 249/282/224 248/281/224 256/291/224 257/293/224
f 254/288/225 109/135/225 262/303/225
f 255/290/226 254/288/226 262/303/226 263/304/226
f 256/292/227 255/290/227 263/304/227 264/305/227
f 257/294/228 256/292/228 264/305/228 265/306/228
f 258/296/229 257/294/229 265/306/229 266/307/229
f 259/298/230 258/296/230 266/307/230 267/308/230
f 260/300/231 259/298/231 267/308/231 268/309/231
f 261/302/232 260/300/232 268/309/232 269/310/232
f 266/307/233 265/306/233 273/314/233 274/315/233
f 267/308/234 266/307/234 274/315/234 275/316/234
f 268/309/235 267/308/235 275/316/235 276/317/235
f 269/310/236 268/309/236 276/317/236 277/318/236
f 262/303/237 109/136/237 270/311/237
f 263/304/238 262/303/238 270/311/238 271/312/238
f 264/305/239 263/304/239 271/312/239 272/313/239
f 265/306/240 264/305/240 272/313/240 273/314/240
f 271/312/241 270/311/241 278/319/241 279/320/241
f 272/313/242 271/312/242 279/320/242 280/321/242
f 273/314/243 272/313/243 280/321/243 281/322/243
f 274/315/244 273/314/244 281/322/244 282/323/244
f 275/316/245 274/315/245 282/323/245 283/324/245
f 276/317/246 275/316/246 283/324/246 284/325/246
f 277/318/247 276/317/247 284/325/247 285/326/247
f 270/311/248 109/137/248 278/319/248
f 283/324/249 282/323/249 290/331/249 291/332/249
f 284/325/250 283/324/250 291/332/250 292/333/250
f 285/326/251 284/325/251 292/333/251 293/334/251
f 278/319/252 109/138/252 286/327/252
f 279/320/253 278/319/253 286/327/253 287/328/253
f 280/321/254 279/320/254 287/328/254 288/329/254
f 281/322/255 280/321/255 288/329/255 289/330/255
f 282/323/256 281/322/256 289/330/256 290/331/256
f 288/329/257 287/328/257 295/336/257 296/337/257
f 289/330/258 288/329/258 296/337/258 297/338/258
f 290/331/259 289/330/259 297/338/259 298/339/259
f 291/332/260 290/331/260 298/339/260 299/340/260
f 292/333/261 291/332/261 299/340/261 300/341/261
f 293/334/262 292/333/262 300/341/262 301/342/262
f 286/327/263 109/139/263 294/335/263
f 287/328/264 286/327/264 294/335/264 295/336/264
f 300/341/265 299/340/265 307/348/265 308/349/265
f 301/342/266 300/341/266 308/349/266 309/350/266
f 294/335/267 109/140/267 302/343/267
f 295/336/268 294/335/268 302/343/268 303/344/268
f 296/337/269 295/336/269 303/344/269 304/345/269
f 297/338/270 296/337/270 304/345/270 305/346/270
f 298/339/271 297/338/271 305/346/271 306/347/271
f 299/340/272 298/339/272 306/347/272 307/348/272
f 304/345/273 303/344/273 311/352/273 312/353/273
f 305/346/274 304/345/274 312/353/274 313/354/274
f 306/347/275 305/346/275 313/354/275 314/355/275
f 307/348/276 306/347/276 314/355/276 315/356/276
f 308/349/277 307/348/277 315/356/277 316/357/277
f 309/350/278 308/349/278 316/357/278 317/358/278
f 302/343/279 109/141/279 310/351/279
f 303/344/280 302/343/280 310/351/280 311/352/280
f 316/357/281 315/356/281 321/362/281 67/69/281
f 317/358/282 316/357/282 67/69/282 68/70/282
f 310/351/283 109/142/283 318/359/283
f 311/352/284 310/351/284 318/359/284 319/360/284
f 312/353/285 311/352/285 319/360/285 65/67/285
f 313/354/286 312/353/286 65/67/286 320/361/286
f 314/355/287 313/354/287 320/361/287 66/68/287
f 315/356/288 314/355/288 66/68/288 321/362/288
o Sphere.001
v 0.000000 -1.000000 -1.000000
v 0.000000 -1.195090 -0.980785
v 0.000000 -1.555570 -0.831470
v 0.195090 -1.000000 -0.980785
v 0.191342 -1.195090 -0.961940
v 0.180240 -1.382684 -0.906127
v 0.162212 -1.555570 -0.815493
v 0.137950 -1.707107 -0.693520
v 0.108386 -1.831470 -0.544895
v 0.074658 -1.923880 -0.375330
v 0.038060 -1.980785 -0.191342
v 0.382683 -1.000000 -0.923879
v 0.375330 -1.195090 -0.906127
v 0.353553 -1.382684 -0.853553
v 0.318190 -1.555570 -0.768178
v 0.270598 -1.707107 -0.653281
v 0.212608 -1.831470 -0.513280
v 0.146447 -1.923880 -0.353553
v 0.074658 -1.980785 -0.180240
v 0.555570 -1.000000 -0.831469
v 0.544895 -1.195090 -0.815493
v 0.513280 -1.382684 -0.768178
v 0.461940 -1.555570 -0.691342
v 0.392847 -1.707107 -0.587938
v 0.308658 -1.831470 -0.461940
v 0.212608 -1.923880 -0.318190
v 0.108386 -1.980785 -0.162212
v 0.707107 -1.000000 -0.707107
v 0.693520 -1.195090 -0.693520
v 0.653281 -1.382684 -0.653281
v 0.587938 -1.555570 -0.587938
v 0.500000 -1.707107 -0.500000
v 0.392847 -1.831470 -0.392847
v 0.270598 -1.923880 -0.270598
v 0.137950 -1.980785 -0.137950
v 0.831470 -1.000000 -0.555570
v 0.815493 -1.195090 -0.544895
v 0.768178 -1.382684 -0.513280
v 0.691342 -1.555570 -0.461940
v 0.587938 -1.707107 -0.392847
v 0.461940 -1.831470 -0.308658
v 0.318190 -1.923880 -0.212608
v 0.162212 -1.980785 -0.108386
v 0.923879 -1.000000 -0.382683
v 0.906127 -1.195090 -0.375330
v 0.853553 -1.382684 -0.353553
v 0.768178 -1.555570 -0.318190
v 0.653281 -1.707107 -0.270598
v 0.513280 -1.831470 -0.212607
v 0.353553 -1.923880 -0.146447
v 0.180240 -1.980785 -0.074658
v 0.980785 -1.000000 -0.195090
v 0.961940 -1.195090 -0.191342
v 0.906127 -1.382684 -0.180240
v 0.815493 -1.555570 -0.162212
v 0.693520 -1.707107 -0.137950
v 0.544895 -1.831470 -0.108386
v 0.375330 -1.923880 -0.074658
v 0.191342 -1.980785 -0.038060
v 1.000000 -1.000000 0.000000
v 0.980785 -1.195090 0.000000
v 0.923879 -1.382684 -0.000000
v 0.831469 -1.555570 0.000000
v 0.707107 -1.707107 -0.000000
v 0.555570 -1.831470 0.000000
v 0.382683 -1.923880 0.000000
v 0.195090 -1.980785 0.000000
v 0.980785 -1.000000 0.195090
v 0.961940 -1.195090 0.191342
v 0.906127 -1.382684 0.180240
v 0.815493 -1.555570 0.162212
v 0.693520 -1.707107 0.137950
v 0.544895 -1.831470 0.108386
v 0.375330 -1.923880 0.074658
v 0.191342 -1.980785 0.038060
v 0.923879 -1.000000 0.382683
v 0.906127 -1.195090 0.375330
v 0.853553 -1.382684 0.353553
v 0.768178 -1.555570 0.318190
v 0.653281 -1.707107 0.270598
v 0.513280 -1.831470 0.212608
v 0.353553 -1.923880 0.146447
v 0.180240 -1.980785 0.074658
v 0.831469 -1.000000 0.555570
v 0.815493 -1.195090 0.544895
v 0.768178 -1.382684 0.513280
v 0.691341 -1.555570 0.461940
v 0.587938 -1.707107 0.392847
v 0.461940 -1.831470 0.308658
v 0.318190 -1.923880 0.212608
v 0.162212 -1.980785 0.108386
v 0.707106 -1.000000 0.707107
v 0.693520 -1.195090 0.693520
v 0.653281 -1.382684 0.653281
v 0.587938 -1.555570 0.587938
v 0.500000 -1.707107 0.500000
v 0.392847 -1.831470 0.392847
v 0.270598 -1.923880 0.270598
v 0.137950 -1.980785 0.137950
v 0.555570 -1.000000 0.831469
v 0.544895 -1.195090 0.815493
v 0.513280 -1.382684 0.768178
v 0.461940 -1.555570 0.691342
v 0.392847 -1.707107 0.587938
v 0.308658 -1.831470 0.461940
v 0.212607 -1.923880 0.318190
v 0.108386 -1.980785 0.162212
v 0.382683 -1.000000 0.923879
v 0.375330 -1.195090 0.906127
v 0.353553 -1.382684 0.853553
v 0.318189 -1.555570 0.768178
v 0.270598 -1.707107 0.653281
v 0.212607 -1.831470 0.513280
v 0.146447 -1.923880 0.353553
v 0.074658 -1.980785 0.180240
v 0.195090 -1.000000 0.980785
v 0.191342 -1.195090 0.961939
v 0.180240 -1.382684 0.906127
v 0.162212 -1.555570 0.815493
v 0.137950 -1.707107 0.693520
v 0.108386 -1.831470 0.544895
v 0.074658 -1.923880 0.375330
v 0.038060 -1.980785 0.191342
v -0.000000 -1.000000 0.999999
v -0.000000 -1.195090 0.980785
v 0.000000 -1.382684 0.923879
v -0.000000 -1.555570 0.831469
v -0.000000 -1.707107 0.707107
v -0.000000 -1.831470 0.555570
v -0.000000 -1.923880 0.382683
v -0.000000 -1.980785 0.195090
v -0.195091 -1.000000 0.980785
v -0.191342 -1.195090 0.961939
v -0.180240 -1.382684 0.906127
v -0.162212 -1.555570 0.815493
v -0.137950 -1.707107 0.693520
v -0.108386 -1.831470 0.544895
v -0.074658 -1.923880 0.375330
v -0.038060 -1.980785 0.191342
v -0.382683 -1.000000 0.923879
v -0.375330 -1.195090 0.906127
v -0.353553 -1.382684 0.853553
v -0.318190 -1.555570 0.768177
v -0.270598 -1.707107 0.653281
v -0.212608 -1.831470 0.513280
v -0.146447 -1.923880 0.353553
v -0.074658 -1.980785 0.180240
v -0.555570 -1.000000 0.831469
v -0.544895 -1.195090 0.815493
v -0.513280 -1.382684 0.768178
v -0.461940 -1.555570 0.691341
v -0.392847 -1.707107 0.587938
v -0.308658 -1.831470 0.461939
v -0.212608 -1.923880 0.318190
v -0.108386 -1.980785 0.162212
v -0.707106 -1.000000 0.707106
v -0.693520 -1.195090 0.693520
v -0.653281 -1.382684 0.653281
v -0.587938 -1.555570 0.587937
v -0.500000 -1.707107 0.500000
v -0.392847 -1.831470 0.392847
v -0.270598 -1.923880 0.270598
v -0.137950 -1.980785 0.137950
v 0.000000 -2.000000 0.000000
v -0.831469 -1.000000 0.555569
v -0.815493 -1.195090 0.544895
v -0.768177 -1.382684 0.513280
v -0.691341 -1.555570 0.461939
v -0.587938 -1.707107 0.392847
v -0.461940 -1.831470 0.308658
v -0.318190 -1.923880 0.212607
v -0.162212 -1.980785 0.108386
v -0.923879 -1.000000 0.382683
v -0.906127 -1.195090 0.375330
v -0.853553 -1.382684 0.353553
v -0.768177 -1.555570 0.318189
v -0.653281 -1.707107 0.270598
v -0.513280 -1.831470 0.212607
v -0.353553 -1.923880 0.146447
v -0.180240 -1.980785 0.074658
v -0.980784 -1.000000 0.195090
v -0.961939 -1.195090 0.191341
v -0.906127 -1.382684 0.180240
v -0.815493 -1.555570 0.162211
v -0.693520 -1.707107 0.137950
v -0.544895 -1.831470 0.108386
v -0.375330 -1.923880 0.074658
v -0.191342 -1.980785 0.038060
v -0.999999 -1.000000 -0.000000
v -0.980785 -1.195090 -0.000000
v -0.923879 -1.382684 -0.000000
v -0.831469 -1.555570 -0.000000
v -0.707107 -1.707107 -0.000000
v -0.555570 -1.831470 -0.000000
v -0.382683 -1.923880 -0.000000
v -0.195090 -1.980785 -0.000000
v -0.980784 -1.000000 -0.195091
v -0.961939 -1.195090 -0.191342
v -0.906127 -1.382684 -0.180240
v -0.815493 -1.555570 -0.162212
v -0.693520 -1.707107 -0.137950
v -0.544895 -1.831470 -0.108386
v -0.375330 -1.923880 -0.074658
v -0.191342 -1.980785 -0.038060
v -0.923878 -1.000000 -0.382683
v -0.906127 -1.195090 -0.375330
v -0.853553 -1.382684 -0.353553
v -0.768177 -1.555570 -0.318190
v -0.653281 -1.707107 -0.270598
v -0.513279 -1.831470 -0.212607
v -0.353553 -1.923880 -0.146447
v -0.180240 -1.980785 -0.074658
v -0.831468 -1.000000 -0.555570
v -0.815493 -1.195090 -0.544895
v -0.768177 -1.382684 -0.513280
v -0.691341 -1.555570 -0.461940
v -0.587938 -1.707107 -0.392847
v -0.461939 -1.831470 -0.308658
v -0.318189 -1.923880 -0.212607
v -0.162212 -1.980785 -0.108386
v -0.707106 -1.000000 -0.707106
v -0.693519 -1.195090 -0.693520
v -0.653281 -1.382684 -0.653281
v -0.587937 -1.555570 -0.587938
v -0.500000 -1.707107 -0.500000
v -0.392847 -1.831470 -0.392847
v -0.270598 -1.923880 -0.270598
v -0.137950 -1.980785 -0.137950
v -0.555569 -1.000000 -0.831469
v -0.544895 -1.195090 -0.815493
v -0.513280 -1.382684 -0.768177
v -0.461939 -1.555570 -0.691341
v -0.392847 -1.707107 -0.587938
v -0.308658 -1.831470 -0.461939
v -0.212607 -1.923880 -0.318190
v -0.108386 -1.980785 -0.162212
v -0.382683 -1.000000 -0.923879
v -0.375330 -1.195090 -0.906127
v -0.353553 -1.382684 -0.853553
v -0.318189 -1.555570 -0.768177
v -0.270598 -1.707107 -0.653281
v -0.212607 -1.831470 -0.513279
v -0.146446 -1.923880 -0.353553
v -0.074658 -1.980785 -0.180240
v -0.195090 -1.000000 -0.980784
v -0.191341 -1.195090 -0.961939
v -0.180240 -1.382684 -0.906127
v -0.162211 -1.555570 -0.815493
v -0.137950 -1.707107 -0.693520
v -0.108386 -1.831470 -0.544895
v -0.074658 -1.923880 -0.375330
v -0.038060 -1.980785 -0.191342
v 0.000000 -1.382684 -0.923879
v 0.000000 -1.707107 -0.707107
v 0.000000 -1.831470 -0.555570
v 0.000000 -1.923880 -0.382683
v 0.000000 -1.980785 -0.195090
vn 0.0464 -0.8810 -0.4709
vn 0.0286 -0.9565 -0.2902
vn 0.0097 -0.9951 -0.0980
vn 0.0975 -0.0975 -0.9904
vn 0.0938 -0.2890 -0.9527
vn 0.0865 -0.4696 -0.8786
vn 0.0759 -0.6326 -0.7708
vn 0.0624 -0.7715 -0.6332
vn 0.1847 -0.7715 -0.6088
vn 0.1374 -0.8810 -0.4528
vn 0.0846 -0.9565 -0.2790
vn 0.0286 -0.9951 -0.0942
vn 0.2889 -0.0976 -0.9524
vn 0.2779 -0.2890 -0.9161
vn 0.2563 -0.4696 -0.8448
vn 0.2248 -0.6326 -0.7412
vn 0.4513 -0.2890 -0.8443
vn 0.4162 -0.4696 -0.7786
vn 0.3651 -0.6326 -0.6831
vn 0.2999 -0.7715 -0.5611
vn 0.2230 -0.8810 -0.4173
vn 0.1374 -0.9565 -0.2571
vn 0.0464 -0.9951 -0.0869
vn 0.4691 -0.0975 -0.8777
vn 0.3002 -0.8810 -0.3658
vn 0.1850 -0.9565 -0.2254
vn 0.0625 -0.9951 -0.0761
vn 0.6314 -0.0975 -0.7693
vn 0.6073 -0.2890 -0.7400
vn 0.5601 -0.4696 -0.6825
vn 0.4913 -0.6326 -0.5987
vn 0.4036 -0.7715 -0.4918
vn 0.7400 -0.2890 -0.6073
vn 0.6825 -0.4696 -0.5601
vn 0.5987 -0.6326 -0.4913
vn 0.4918 -0.7715 -0.4036
vn 0.3658 -0.8810 -0.3002
vn 0.2254 -0.9565 -0.1850
vn 0.0761 -0.9951 -0.0625
vn 0.7693 -0.0975 -0.6314
vn 0.4173 -0.8810 -0.2230
vn 0.2571 -0.9565 -0.1374
vn 0.0869 -0.9951 -0.0464
vn 0.8777 -0.0975 -0.4691
vn 0.8443 -0.2890 -0.4513
vn 0.7786 -0.4696 -0.4162
vn 0.6831 -0.6326 -0.3651
vn 0.5611 -0.7715 -0.2999
vn 0.8448 -0.4696 -0.2563
vn 0.7412 -0.6326 -0.2248
vn 0.6088 -0.7715 -0.1847
vn 0.4528 -0.8810 -0.1374
vn 0.2790 -0.9565 -0.0846
vn 0.0942 -0.9951 -0.0286
vn 0.9524 -0.0975 -0.2889
vn 0.9161 -0.2890 -0.2779
vn 0.2902 -0.9565 -0.0286
vn 0.0980 -0.9951 -0.0097
vn 0.9904 -0.0975 -0.0975
vn 0.9527 -0.2890 -0.0938
vn 0.8786 -0.4696 -0.0865
vn 0.7708 -0.6326 -0.0759
vn 0.6332 -0.7715 -0.0624
vn 0.4709 -0.8810 -0.0464
vn 0.8786 -0.4696 0.0865
vn 0.7708 -0.6326 0.0759
vn 0.6332 -0.7715 0.0624
vn 0.4709 -0.8810 0.0464
vn 0.2902 -0.9565 0.0286
vn 0.0980 -0.9951 0.0097
vn 0.9904 -0.0975 0.0976
vn 0.9527 -0.2890 0.0938
vn 0.2790 -0.9565 0.0846
vn 0.0942 -0.9951 0.0286
vn 0.9524 -0.0975 0.2889
vn 0.9161 -0.2890 0.2779
vn 0.8448 -0.4696 0.2563
vn 0.7412 -0.6326 0.2248
vn 0.6088 -0.7715 0.1847
vn 0.4528 -0.8810 0.1374
vn 0.6831 -0.6326 0.3651
vn 0.5611 -0.7715 0.2999
vn 0.4173 -0.8810 0.2230
vn 0.2571 -0.9565 0.1374
vn 0.0869 -0.9951 0.0464
vn 0.8777 -0.0975 0.4691
vn 0.8443 -0.2890 0.4513
vn 0.7786 -0.4696 0.4162
vn 0.0761 -0.9951 0.0625
vn 0.7693 -0.0975 0.6314
vn 0.7400 -0.2890 0.6073
vn 0.6825 -0.4696 0.5601
vn 0.5987 -0.6326 0.4913
vn 0.4918 -0.7715 0.4036
vn 0.3658 -0.8810 0.3002
vn 0.2254 -0.9565 0.1850
vn 0.4036 -0.7715 0.4918
vn 0.3002 -0.8810 0.3658
vn 0.1850 -0.9565 0.2254
vn 0.0625 -0.9951 0.0761
vn 0.6314 -0.0975 0.7693
vn 0.6073 -0.2890 0.7400
vn 0.5601 -0.4696 0.6825
vn 0.4913 -0.6326 0.5987
vn 0.4691 -0.0975 0.8777
vn 0.4513 -0.2890 0.8443
vn 0.4162 -0.4696 0.7786
vn 0.3651 -0.6326 0.6831
vn 0.2999 -0.7715 0.5611
vn 0.2230 -0.8810 0.4173
vn 0.1374 -0.9565 0.2571
vn 0.0464 -0.9951 0.0869
vn 0.1847 -0.7715 0.6088
vn 0.1374 -0.8810 0.4528
vn 0.0846 -0.9565 0.2790
vn 0.0286 -0.9951 0.0942
vn 0.2889 -0.0975 0.9524
vn 0.2779 -0.2890 0.9161
vn 0.2563 -0.4696 0.8448
vn 0.2248 -0.6326 0.7412
vn 0.0938 -0.2890 0.9527
vn 0.0865 -0.4696 0.8786
vn 0.0759 -0.6326 0.7708
vn 0.0624 -0.7715 0.6332
vn 0.0464 -0.8810 0.4709
vn 0.0286 -0.9565 0.2902
vn 0.0097 -0.9951 0.0980
vn 0.0975 -0.0975 0.9904
vn -0.0464 -0.8810 0.4709
vn -0.0286 -0.9565 0.2902
vn -0.0097 -0.9951 0.0980
vn -0.0976 -0.0975 0.9904
vn -0.0938 -0.2890 0.9527
vn -0.0865 -0.4696 0.8786
vn -0.0759 -0.6326 0.7708
vn -0.0624 -0.7715 0.6332
vn -0.2779 -0.2890 0.9161
vn -0.2563 -0.4696 0.8448
vn -0.2248 -0.6326 0.7412
vn -0.1847 -0.7715 0.6088
vn -0.1374 -0.8810 0.4528
vn -0.0846 -0.9565 0.2790
vn -0.0286 -0.9951 0.0942
vn -0.2889 -0.0975 0.9524
vn -0.2230 -0.8810 0.4173
vn -0.1374 -0.9565 0.2571
vn -0.0464 -0.9951 0.0869
vn -0.4691 -0.0975 0.8777
vn -0.4513 -0.2890 0.8443
vn -0.4162 -0.4696 0.7786
vn -0.3651 -0.6326 0.6831
vn -0.2999 -0.7715 0.5611
vn -0.5601 -0.4696 0.6825
vn -0.4913 -0.6326 0.5987
vn -0.4036 -0.7715 0.4918
vn -0.3002 -0.8810 0.3658
vn -0.1850 -0.9565 0.2254
vn -0.0625 -0.9951 0.0761
vn -0.6314 -0.0975 0.7693
vn -0.6073 -0.2890 0.7400
vn -0.2254 -0.9565 0.1850
vn -0.0761 -0.9951 0.0625
vn -0.7693 -0.0975 0.6314
vn -0.7400 -0.2890 0.6073
vn -0.6825 -0.4696 0.5601
vn -0.5987 -0.6326 0.4913
vn -0.4918 -0.7715 0.4036
vn -0.3658 -0.8810 0.3002
vn -0.6831 -0.6326 0.3651
vn -0.5611 -0.7715 0.2999
vn -0.4173 -0.8810 0.2230
vn -0.2571 -0.9565 0.1374
vn -0.0869 -0.9951 0.0464
vn -0.8777 -0.0975 0.4691
vn -0.8443 -0.2890 0.4513
vn -0.7786 -0.4696 0.4162
vn -0.0942 -0.9951 0.0286
vn -0.9524 -0.0975 0.2889
vn -0.9161 -0.2890 0.2779
vn -0.8448 -0.4696 0.2563
vn -0.7412 -0.6326 0.2248
vn -0.6088 -0.7715 0.1847
vn -0.4528 -0.8810 0.1374
vn -0.2790 -0.9565 0.0846
vn -0.7708 -0.6326 0.0759
vn -0.6332 -0.7715 0.0624
vn -0.4709 -0.8810 0.0464
vn -0.2902 -0.9565 0.0286
vn -0.0980 -0.9951 0.0097
vn -0.9904 -0.0975 0.0975
vn -0.9527 -0.2890 0.0938
vn -0.8786 -0.4696 0.0865
vn -0.0980 -0.9951 -0.0097
vn -0.9904 -0.0975 -0.0976
vn -0.9527 -0.2890 -0.0938
vn -0.8786 -0.4696 -0.0865
vn -0.7708 -0.6326 -0.0759
vn -0.6332 -0.7715 -0.0624
vn -0.4709 -0.8810 -0.0464
vn -0.2902 -0.9565 -0.0286
vn -0.6088 -0.7715 -0.1847
vn -0.4528 -0.8810 -0.1374
vn -0.2790 -0.9565 -0.0846
vn -0.0942 -0.9951 -0.0286
vn -0.9524 -0.0975 -0.2889
vn -0.9161 -0.2890 -0.2779
vn -0.8448 -0.4696 -0.2563
vn -0.7412 -0.6326 -0.2248
vn -0.8777 -0.0975 -0.4691
vn -0.8443 -0.2890 -0.4513
vn -0.7786 -0.4696 -0.4162
vn -0.6831 -0.6326 -0.3651
vn -0.5611 -0.7715 -0.2999
vn -0.4173 -0.8810 -0.2231
vn -0.2571 -0.9565 -0.1374
vn -0.0869 -0.9951 -0.0464
vn -0.4918 -0.7715 -0.4036
vn -0.3658 -0.8810 -0.3002
vn -0.2254 -0.9565 -0.1850
vn -0.0761 -0.9951 -0.0625
vn -0.7693 -0.0975 -0.6314
vn -0.7400 -0.2890 -0.6073
vn -0.6825 -0.4696 -0.5601
vn -0.5987 -0.6326 -0.4913
vn -0.6073 -0.2890 -0.7400
vn -0.5601 -0.4696 -0.6825
vn -0.4913 -0.6326 -0.5987
vn -0.4036 -0.7715 -0.4918
vn -0.3002 -0.8810 -0.3658
vn -0.1850 -0.9565 -0.2254
vn -0.0625 -0.9951 -0.0761
vn -0.6314 -0.0975 -0.7693
vn -0.2230 -0.8810 -0.4173
vn -0.1374 -0.9565 -0.2571
vn -0.0464 -0.9951 -0.0869
vn -0.4691 -0.0975 -0.8777
vn -0.4513 -0.2890 -0.8443
vn -0.4162 -0.4696 -0.7786
vn -0.3651 -0.6326 -0.6831
vn -0.2999 -0.7715 -0.5611
vn -0.2563 -0.4696 -0.8448
vn -0.2248 -0.6326 -0.7412
vn -0.1847 -0.7715 -0.6088
vn -0.1374 -0.8810 -0.4528
vn -0.0846 -0.9565 -0.2790
vn -0.0286 -0.9951 -0.0942
vn -0.2889 -0.0975 -0.9524
vn -0.2779 -0.2890 -0.9161
vn -0.0286 -0.9565 -0.2902
vn -0.0097 -0.9951 -0.0980
vn -0.0976 -0.0975 -0.9904
vn -0.0938 -0.2890 -0.9527
vn -0.0865 -0.4696 -0.8786
vn -0.0759 -0.6326 -0.7708
vn -0.0624 -0.7715 -0.6332
vn -0.0464 -0.8810 -0.4709
vt 0.750000 0.500000
vt 0.750000 0.437500
vt 0.750000 0.312500
vt 0.718750 0.500000
vt 0.718750 0.437500
vt 0.718750 0.375000
vt 0.718750 0.312500
vt 0.718750 0.250000
vt 0.718750 0.187500
vt 0.718750 0.125000
vt 0.718750 0.062500
vt 0.687500 0.500000
vt 0.687500 0.437500
vt 0.687500 0.375000
vt 0.687500 0.312500
vt 0.687500 0.250000
vt 0.687500 0.187500
vt 0.687500 0.125000
vt 0.687500 0.062500
vt 0.656250 0.500000
vt 0.656250 0.437500
vt 0.656250 0.375000
vt 0.656250 0.312500
vt 0.656250 0.250000
vt 0.656250 0.187500
vt 0.656250 0.125000
vt 0.656250 0.062500
vt 0.625000 0.500000
vt 0.625000 0.437500
vt 0.625000 0.375000
vt 0.625000 0.312500
vt 0.625000 0.250000
vt 0.625000 0.187500
vt 0.625000 0.125000
vt 0.625000 0.062500
vt 0.593750 0.500000
vt 0.593750 0.437500
vt 0.593750 0.375000
vt 0.593750 0.312500
vt 0.593750 0.250000
vt 0.593750 0.187500
vt 0.593750 0.125000
vt 0.593750 0.062500
vt 0.562500 0.500000
vt 0.562500 0.437500
vt 0.562500 0.375000
vt 0.562500 0.312500
vt 0.562500 0.250000
vt 0.562500 0.187500
vt 0.562500 0.125000
vt 0.562500 0.062500
vt 0.531250 0.500000
vt 0.531250 0.437500
vt 0.531250 0.375000
vt 0.531250 0.312500
vt 0.531250 0.250000
vt 0.531250 0.187500
vt 0.531250 0.125000
vt 0.531250 0.062500
vt 0.500000 0.500000
vt 0.500000 0.437500
vt 0.500000 0.375000
vt 0.500000 0.312500
vt 0.500000 0.250000
vt 0.500000 0.187500
vt 0.500000 0.125000
vt 0.500000 0.062500
vt 0.468750 0.500000
vt 0.468750 0.437500
vt 0.468750 0.375000
vt 0.468750 0.312500
vt 0.468750 0.250000
vt 0.468750 0.187500
vt 0.468750 0.125000
vt 0.468750 0.062500
vt 0.437500 0.500000
vt 0.437500 0.437500
vt 0.437500 0.375000
vt 0.437500 0.312500
vt 0.437500 0.250000
vt 0.437500 0.187500
vt 0.437500 0.125000
vt 0.437500 0.062500
vt 0.406250 0.500000
vt 0.406250 0.437500
vt 0.406250 0.375000
vt 0.406250 0.312500
vt 0.406250 0.250000
vt 0.406250 0.187500
vt 0.406250 0.125000
vt 0.406250 0.062500
vt 0.375000 0.500000
vt 0.375000 0.437500
vt 0.375000 0.375000
vt 0.375000 0.312500
vt 0.375000 0.250000
vt 0.375000 0.187500
vt 0.375000 0.125000
vt 0.375000 0.062500
vt 0.343750 0.500000
vt 0.343750 0.437500
vt 0.343750 0.375000
vt 0.343750 0.312500
vt 0.343750 0.250000
vt 0.343750 0.187500
vt 0.343750 0.125000
vt 0.343750 0.062500
vt 0.312500 0.500000
vt 0.312500 0.437500
vt 0.312500 0.375000
vt 0.312500 0.312500
vt 0.312500 0.250000
vt 0.312500 0.187500
vt 0.312500 0.125000
vt 0.312500 0.062500
vt 0.281250 0.500000
vt 0.281250 0.437500
vt 0.281250 0.375000
vt 0.281250 0.312500
vt 0.281250 0.250000
vt 0.281250 0.187500
vt 0.281250 0.125000
vt 0.281250 0.062500
vt 0.250000 0.500000
vt 0.250000 0.437500
vt 0.250000 0.375000
vt 0.250000 0.312500
vt 0.250000 0.250000
vt 0.250000 0.187500
vt 0.250000 0.125000
vt 0.250000 0.062500
vt 0.218750 0.500000
vt 0.218750 0.437500
vt 0.218750 0.375000
vt 0.218750 0.312500
vt 0.218750 0.250000
vt 0.218750 0.187500
vt 0.218750 0.125000
vt 0.218750 0.062500
vt 0.187500 0.500000
vt 0.187500 0.437500
vt 0.187500 0.375000
vt 0.187500 0.312500
vt 0.187500 0.250000
vt 0.187500 0.187500
vt 0.187500 0.125000
vt 0.187500 0.062500
vt 0.156250 0.500000
vt 0.156250 0.437500
vt 0.156250 0.375000
vt 0.156250 0.312500
vt 0.156250 0.250000
vt 0.156250 0.187500
vt 0.156250 0.125000
vt 0.156250 0.062500
vt 0.125000 0.500000
vt 0.125000 0.437500
vt 0.125000 0.375000
vt 0.125000 0.312500
vt 0.125000 0.250000
vt 0.125000 0.187500
vt 0.125000 0.125000
vt 0.125000 0.062500
vt 0.734375 0.000000
vt 0.703125 0.000000
vt 0.671875 0.000000
vt 0.640625 0.000000
vt 0.609375 0.000000
vt 0.578125 0.000000
vt 0.546875 0.000000
vt 0.515625 0.000000
vt 0.484375 0.000000
vt 0.453125 0.000000
vt 0.421875 0.000000
vt 0.390625 0.000000
vt 0.359375 0.000000
vt 0.328125 0.000000
vt 0.296875 0.000000
vt 0.265625 0.000000
vt 0.234375 0.000000
vt 0.203125 0.000000
vt 0.171875 0.000000
vt 0.140625 0.000000
vt 0.109375 0.000000
vt 0.078125 0.000000
vt 0.046875 0.000000
vt 0.015625 0.000000
vt 0.984375 0.000000
vt 0.953125 0.000000
vt 0.921875 0.000000
vt 0.890625 0.000000
vt 0.859375 0.000000
vt 0.828125 0.000000
vt 0.796875 0.000000
vt 0.765625 0.000000
vt 0.093750 0.500000
vt 0.093750 0.437500
vt 0.093750 0.375000
vt 0.093750 0.312500
vt 0.093750 0.250000
vt 0.093750 0.187500
vt 0.093750 0.125000
vt 0.093750 0.062500
vt 0.062500 0.500000
vt 0.062500 0.437500
vt 0.062500 0.375000
vt 0.062500 0.312500
vt 0.062500 0.250000
vt 0.062500 0.187500
vt 0.062500 0.125000
vt 0.062500 0.062500
vt 0.031250 0.500000
vt 0.031250 0.437500
vt 0.031250 0.375000
vt 0.031250 0.312500
vt 0.031250 0.250000
vt 0.031250 0.187500
vt 0.031250 0.125000
vt 0.031250 0.062500
vt 0.000000 0.500000
vt 1.000000 0.500000
vt 0.000000 0.437500
vt 1.000000 0.437500
vt 0.000000 0.375000
vt 1.000000 0.375000
vt 0.000000 0.312500
vt 1.000000 0.312500
vt 0.000000 0.250000
vt 1.000000 0.250000
vt 0.000000 0.187500
vt 1.000000 0.187500
vt 0.000000 0.125000
vt 1.000000 0.125000
vt 0.000000 0.062500
vt 1.000000 0.062500
vt 0.968750 0.500000
vt 0.968750 0.437500
vt 0.968750 0.375000
vt 0.968750 0.312500
vt 0.968750 0.250000
vt 0.968750 0.187500
vt 0.968750 0.125000
vt 0.968750 0.062500
vt 0.937500 0.500000
vt 0.937500 0.437500
vt 0.937500 0.375000
vt 0.937500 0.312500
vt 0.937500 0.250000
vt 0.937500 0.187500
vt 0.937500 0.125000
vt 0.937500 0.062500
vt 0.906250 0.500000
vt 0.906250 0.437500
vt 0.906250 0.375000
vt 0.906250 0.312500
vt 0.906250 0.250000
vt 0.906250 0.187500
vt 0.906250 0.125000
vt 0.906250 0.062500
vt 0.875000 0.500000
vt 0.875000 0.437500
vt 0.875000 0.375000
vt 0.875000 0.312500
vt 0.875000 0.250000
vt 0.875000 0.187500
vt 0.875000 0.125000
vt 0.875000 0.062500
vt 0.843750 0.500000
vt 0.843750 0.437500
vt 0.843750 0.375000
vt 0.843750 0.312500
vt 0.843750 0.250000
vt 0.843750 0.187500
vt 0.843750 0.125000
vt 0.843750 0.062500
vt 0.812500 0.500000
vt 0.812500 0.437500
vt 0.812500 0.375000
vt 0.812500 0.312500
vt 0.812500 0.250000
vt 0.812500 0.187500
vt 0.812500 0.125000
vt 0.812500 0.062500
vt 0.781250 0.500000
vt 0.781250 0.437500
vt 0.781250 0.375000
vt 0.781250 0.312500
vt 0.781250 0.250000
vt 0.781250 0.187500
vt 0.781250 0.125000
vt 0.781250 0.062500
vt 0.750000 0.375000
vt 0.750000 0.250000
vt 0.750000 0.187500
vt 0.750000 0.125000
vt 0.750000 0.062500
s 0
f 577/657/289 576/656/289 330/371/289 331/372/289
f 578/658/290 577/657/290 331/372/290 332/373/290
f 485/526/291 578/658/291 332/373/291
f 323/364/292 322/363/292 325/366/292 326/367/292
f 574/654/293 323/364/293 326/367/293 327/368/293
f 324/365/294 574/654/294 327/368/294 328/369/294
f 575/655/295 324/365/295 328/369/295 329/370/295
f 576/656/296 575/655/296 329/370/296 330/371/296
f 330/371/297 329/370/297 337/378/297 338/379/297
f 331/372/298 330/371/298 338/379/298 339/380/298
f 332/373/299 331/372/299 339/380/299 340/381/299
f 485/527/300 332/373/300 340/381/300
f 326/367/301 325/366/301 333/374/301 334/375/301
f 327/368/302 326/367/302 334/375/302 335/376/302
f 328/369/303 327/368/303 335/376/303 336/377/303
f 329/370/304 328/369/304 336/377/304 337/378/304
f 335/376/305 334/375/305 342/383/305 343/384/305
f 336/377/306 335/376/306 343/384/306 344/385/306
f 337/378/307 336/377/307 344/385/307 345/386/307
f 338/379/308 337/378/308 345/386/308 346/387/308
f 339/380/309 338/379/309 346/387/309 347/388/309
f 340/381/310 339/380/310 347/388/310 348/389/310
f 485/528/311 340/381/311 348/389/311
f 334/375/312 333/374/312 341/382/312 342/383/312
f 347/388/313 346/387/313 354/395/313 355/396/313
f 348/389/314 347/388/314 355/396/314 356/397/314
f 485/529/315 348/389/315 356/397/315
f 342/383/316 341/382/316 349/390/316 350/391/316
f 343/384/317 342/383/317 350/391/317 351/392/317
f 344/385/318 343/384/318 351/392/318 352/393/318
f 345/386/319 344/385/319 352/393/319 353/394/319
f 346/387/320 345/386/320 353/394/320 354/395/320
f 351/392/321 350/391/321 358/399/321 359/400/321
f 352/393/322 351/392/322 359/400/322 360/401/322
f 353/394/323 352/393/323 360/401/323 361/402/323
f 354/395/324 353/394/324 361/402/324 362/403/324
f 355/396/325 354/395/325 362/403/325 363/404/325
f 356/397/326 355/396/326 363/404/326 364/405/326
f 485/530/327 356/397/327 364/405/327
f 350/391/328 349/390/328 357/398/328 358/399/328
f 363/404/329 362/403/329 370/411/329 371/412/329
f 364/405/330 363/404/330 371/412/330 372/413/330
f 485/531/331 364/405/331 372/413/331
f 358/399/332 357/398/332 365/406/332 366/407/332
f 359/400/333 358/399/333 366/407/333 367/408/333
f 360/401/334 359/400/334 367/408/334 368/409/334
f 361/402/335 360/401/335 368/409/335 369/410/335
f 362/403/336 361/402/336 369/410/336 370/411/336
f 368/409/337 367/408/337 375/416/337 376/417/337
f 369/410/338 368/409/338 376/417/338 377/418/338
f 370/411/339 369/410/339 377/418/339 378/419/339
f 371/412/340 370/411/340 378/419/340 379/420/340
f 372/413/341 371/412/341 379/420/341 380/421/341
f 485/532/342 372/413/342 380/421/342
f 366/407/343 365/406/343 373/414/343 374/415/343
f 367/408/344 366/407/344 374/415/344 375/416/344
f 380/421/345 379/420/345 387/428/345 388/429/345
f 485/533/346 380/421/346 388/429/346
f 374/415/347 373/414/347 381/422/347 382/423/347
f 375/416/348 374/415/348 382/423/348 383/424/348
f 376/417/349 375/416/349 383/424/349 384/425/349
f 377/418/350 376/417/350 384/425/350 385/426/350
f 378/419/351 377/418/351 385/426/351 386/427/351
f 379/420/352 378/419/352 386/427/352 387/428/352
f 384/425/353 383/424/353 391/432/353 392/433/353
f 385/426/354 384/425/354 392/433/354 393/434/354
f 386/427/355 385/426/355 393/434/355 394/435/355
f 387/428/356 386/427/356 394/435/356 395/436/356
f 388/429/357 387/428/357 395/436/357 396/437/357
f 485/534/358 388/429/358 396/437/358
f 382/423/359 381/422/359 389/430/359 390/431/359
f 383/424/360 382/423/360 390/431/360 391/432/360
f 396/437/361 395/436/361 403/444/361 404/445/361
f 485/535/362 396/437/362 404/445/362
f 390/431/363 389/430/363 397/438/363 398/439/363
f 391/432/364 390/431/364 398/439/364 399/440/364
f 392/433/365 391/432/365 399/440/365 400/441/365
f 393/434/366 392/433/366 400/441/366 401/442/366
f 394/435/367 393/434/367 401/442/367 402/443/367
f 395/436/368 394/435/368 402/443/368 403/444/368
f 401/442/369 400/441/369 408/449/369 409/450/369
f 402/443/370 401/442/370 409/450/370 410/451/370
f 403/444/371 402/443/371 410/451/371 411/452/371
f 404/445/372 403/444/372 411/452/372 412/453/372
f 485/536/373 404/445/373 412/453/373
f 398/439/374 397/438/374 405/446/374 406/447/374
f 399/440/375 398/439/375 406/447/375 407/448/375
f 400/441/376 399/440/376 407/448/376 408/449/376
f 485/537/377 412/453/377 420/461/377
f 406/447/378 405/446/378 413/454/378 414/455/378
f 407/448/379 406/447/379 414/455/379 415/456/379
f 408/449/380 407/448/380 415/456/380 416/457/380
f 409/450/381 408/449/381 416/457/381 417/458/381
f 410/451/382 409/450/382 417/458/382 418/459/382
f 411/452/383 410/451/383 418/459/383 419/460/383
f 412/453/384 411/452/384 419/460/384 420/461/384
f 418/459/385 417/458/385 425/466/385 426/467/385
f 419/460/386 418/459/386 426/467/386 427/468/386
f 420/461/387 419/460/387 427/468/387 428/469/387
f 485/538/388 420/461/388 428/469/388
f 414/455/389 413/454/389 421/462/389 422/463/389
f 415/456/390 414/455/390 422/463/390 423/464/390
f 416/457/391 415/456/391 423/464/391 424/465/391
f 417/458/392 416/457/392 424/465/392 425/466/392
f 422/463/393 421/462/393 429/470/393 430/471/393
f 423/464/394 422/463/394 430/471/394 431/472/394
f 424/465/395 423/464/395 431/472/395 432/473/395
f 425/466/396 424/465/396 432/473/396 433/474/396
f 426/467/397 425/466/397 433/474/397 434/475/397
f 427/468/398 426/467/398 434/475/398 435/476/398
f 428/469/399 427/468/399 435/476/399 436/477/399
f 485/539/400 428/469/400 436/477/400
f 434/475/401 433/474/401 441/482/401 442/483/401
f 435/476/402 434/475/402 442/483/402 443/484/402
f 436/477/403 435/476/403 443/484/403 444/485/403
f 485/540/404 436/477/404 444/485/404
f 430/471/405 429/470/405 437/478/405 438/479/405
f 431/472/406 430/471/406 438/479/406 439/480/406
f 432/473/407 431/472/407 439/480/407 440/481/407
f 433/474/408 432/473/408 440/481/408 441/482/408
f 439/480/409 438/479/409 446/487/409 447/488/409
f 440/481/410 439/480/410 447/488/410 448/489/410
f 441/482/411 440/481/411 448/489/411 449/490/411
f 442/483/412 441/482/412 449/490/412 450/491/412
f 443/484/413 442/483/413 450/491/413 451/492/413
f 444/485/414 443/484/414 451/492/414 452/493/414
f 485/541/415 444/485/415 452/493/415
f 438/479/416 437/478/416 445/486/416 446/487/416
f 451/492/417 450/491/417 458/499/417 459/500/417
f 452/493/418 451/492/418 459/500/418 460/501/418
f 485/542/419 452/493/419 460/501/419
f 446/487/420 445/486/420 453/494/420 454/495/420
f 447/488/421 446/487/421 454/495/421 455/496/421
f 448/489/422 447/488/422 455/496/422 456/497/422
f 449/490/423 448/489/423 456/497/423 457/498/423
f 450/491/424 449/490/424 457/498/424 458/499/424
f 455/496/425 454/495/425 462/503/425 463/504/425
f 456/497/426 455/496/426 463/504/426 464/505/426
f 457/498/427 456/497/427 464/505/427 465/506/427
f 458/499/428 457/498/428 465/506/428 466/507/428
f 459/500/429 458/499/429 466/507/429 467/508/429
f 460/501/430 459/500/430 467/508/430 468/509/430
f 485/543/431 460/501/431 468/509/431
f 454/495/432 453/494/432 461/502/432 462/503/432
f 467/508/433 466/507/433 474/515/433 475/516/433
f 468/509/434 467/508/434 475/516/434 476/517/434
f 485/544/435 468/509/435 476/517/435
f 462/503/436 461/502/436 469/510/436 470/511/436
f 463/504/437 462/503/437 470/511/437 471/512/437
f 464/505/438 463/504/438 471/512/438 472/513/438
f 465/506/439 464/505/439 472/513/439 473/514/439
f 466/507/440 465/506/440 473/514/440 474/515/440
f 472/513/441 471/512/441 479/520/441 480/521/441
f 473/514/442 472/513/442 480/521/442 481/522/442
f 474/515/443 473/514/443 481/522/443 482/523/443
f 475/516/444 474/515/444 482/523/444 483/524/444
f 476/517/445 475/516/445 483/524/445 484/525/445
f 485/545/446 476/517/446 484/525/446
f 470/511/447 469/510/447 477/518/447 478/519/447
f 471/512/448 470/511/448 478/519/448 479/520/448
f 484/525/449 483/524/449 492/564/449 493/565/449
f 485/546/450 484/525/450 493/565/450
f 478/519/451 477/518/451 486/558/451 487/559/451
f 479/520/452 478/519/452 487/559/452 488/560/452
f 480/521/453 479/520/453 488/560/453 489/561/453
f 481/522/454 480/521/454 489/561/454 490/562/454
f 482/523/455 481/522/455 490/562/455 491/563/455
f 483/524/456 482/523/456 491/563/456 492/564/456
f 490/562/457 489/561/457 497/569/457 498/570/457
f 491/563/458 490/562/458 498/570/458 499/571/458
f 492/564/459 491/563/459 499/571/459 500/572/459
f 493/565/460 492/564/460 500/572/460 501/573/460
f 485/547/461 493/565/461 501/573/461
f 487/559/462 486/558/462 494/566/462 495/567/462
f 488/560/463 487/559/463 495/567/463 496/568/463
f 489/561/464 488/560/464 496/568/464 497/569/464
f 485/548/465 501/573/465 509/581/465
f 495/567/466 494/566/466 502/574/466 503/575/466
f 496/568/467 495/567/467 503/575/467 504/576/467
f 497/569/468 496/568/468 504/576/468 505/577/468
f 498/570/469 497/569/469 505/577/469 506/578/469
f 499/571/470 498/570/470 506/578/470 507/579/470
f 500/572/471 499/571/471 507/579/471 508/580/471
f 501/573/472 500/572/472 508/580/472 509/581/472
f 506/578/473 505/577/473 513/588/473 514/590/473
f 507/579/474 506/578/474 514/590/474 515/592/474
f 508/580/475 507/579/475 515/592/475 516/594/475
f 509/581/476 508/580/476 516/594/476 517/596/476
f 485/549/477 509/581/477 517/596/477
f 503/575/478 502/574/478 510/582/478 511/584/478
f 504/576/479 503/575/479 511/584/479 512/586/479
f 505/577/480 504/576/480 512/586/480 513/588/480
f 485/550/481 517/597/481 525/605/481
f 511/585/482 510/583/482 518/598/482 519/599/482
f 512/587/483 511/585/483 519/599/483 520/600/483
f 513/589/484 512/587/484 520/600/484 521/601/484
f 514/591/485 513/589/485 521/601/485 522/602/485
f 515/593/486 514/591/486 522/602/486 523/603/486
f 516/595/487 515/593/487 523/603/487 524/604/487
f 517/597/488 516/595/488 524/604/488 525/605/488
f 523/603/489 522/602/489 530/610/489 531/611/489
f 524/604/490 523/603/490 531/611/490 532/612/490
f 525/605/491 524/604/491 532/612/491 533/613/491
f 485/551/492 525/605/492 533/613/492
f 519/599/493 518/598/493 526/606/493 527/607/493
f 520/600/494 519/599/494 527/607/494 528/608/494
f 521/601/495 520/600/495 528/608/495 529/609/495
f 522/602/496 521/601/496 529/609/496 530/610/496
f 527/607/497 526/606/497 534/614/497 535/615/497
f 528/608/498 527/607/498 535/615/498 536/616/498
f 529/609/499 528/608/499 536/616/499 537/617/499
f 530/610/500 529/609/500 537/617/500 538/618/500
f 531/611/501 530/610/501 538/618/501 539/619/501
f 532/612/502 531/611/502 539/619/502 540/620/502
f 533/613/503 532/612/503 540/620/503 541/621/503
f 485/552/504 533/613/504 541/621/504
f 539/619/505 538/618/505 546/626/505 547/627/505
f 540/620/506 539/619/506 547/627/506 548/628/506
f 541/621/507 540/620/507 548/628/507 549/629/507
f 485/553/508 541/621/508 549/629/508
f 535/615/509 534/614/509 542/622/509 543/623/509
f 536/616/510 535/615/510 543/623/510 544/624/510
f 537/617/511 536/616/511 544/624/511 545/625/511
f 538/618/512 537/617/512 545/625/512 546/626/512
f 544/624/513 543/623/513 551/631/513 552/632/513
f 545/625/514 544/624/514 552/632/514 553/633/514
f 546/626/515 545/625/515 553/633/515 554/634/515
f 547/627/516 546/626/516 554/634/516 555/635/516
f 548/628/517 547/627/517 555/635/517 556/636/517
f 549/629/518 548/628/518 556/636/518 557/637/518
f 485/554/519 549/629/519 557/637/519
f 543/623/520 542/622/520 550/630/520 551/631/520
f 556/636/521 555/635/521 563/643/521 564/644/521
f 557/637/522 556/636/522 564/644/522 565/645/522
f 485/555/523 557/637/523 565/645/523
f 551/631/524 550/630/524 558/638/524 559/639/524
f 552/632/525 551/631/525 559/639/525 560/640/525
f 553/633/526 552/632/526 560/640/526 561/641/526
f 554/634/527 553/633/527 561/641/527 562/642/527
f 555/635/528 554/634/528 562/642/528 563/643/528
f 561/641/529 560/640/529 568/648/529 569/649/529
f 562/642/530 561/641/530 569/649/530 570/650/530
f 563/643/531 562/642/531 570/650/531 571/651/531
f 564/644/532 563/643/532 571/651/532 572/652/532
f 565/645/533 564/644/533 572/652/533 573/653/533
f 485/556/534 565/645/534 573/653/534
f 559/639/535 558/638/535 566/646/535 567/647/535
f 560/640/536 559/639/536 567/647/536 568/648/536
f 573/653/537 572/652/537 577/657/537 578/658/537
f 485/557/538 573/653/538 578/658/538
f 567/647/539 566/646/539 322/363/539 323/364/539
f 568/648/540 567/647/540 323/364/540 574/654/540
f 569/649/541 568/648/541 574/654/541 324/365/541
f 570/650/542 569/649/542 324/365/542 575/655/542
f 571/651/543 570/650/543 575/655/543 576/656/543
f 572/652/544 571/651/544 576/656/544 577/657/544
