# Blender 3.4.0
# www.blender.org
mtllib rotatehandle.mtl
o Torus
v 0.000000 -0.510000 0.000000
v 0.008660 -0.495000 0.000000
v -0.008660 -0.495000 0.000000
v 0.000000 -0.492622 -0.131998
v 0.008660 -0.478133 -0.128115
v -0.008660 -0.478133 -0.128115
v 0.000000 -0.441673 -0.255000
v 0.008660 -0.428683 -0.247500
v -0.008660 -0.428683 -0.247500
v 0.000000 -0.360624 -0.360624
v 0.008660 -0.350018 -0.350018
v -0.008660 -0.350018 -0.350018
v 0.000000 -0.255000 -0.441673
v 0.008660 -0.247500 -0.428683
v -0.008660 -0.247500 -0.428683
v 0.000000 -0.131998 -0.492622
v 0.008660 -0.128115 -0.478133
v -0.008660 -0.128115 -0.478133
v 0.000000 -0.000000 -0.510000
v 0.008660 -0.000000 -0.495000
v -0.008660 -0.000000 -0.495000
v -0.000000 0.131998 -0.492622
v 0.008660 0.128115 -0.478133
v -0.008660 0.128115 -0.478133
v -0.000000 0.255000 -0.441673
v 0.008660 0.247500 -0.428683
v -0.008660 0.247500 -0.428683
v -0.000000 0.360625 -0.360624
v 0.008660 0.350018 -0.350018
v -0.008660 0.350018 -0.350018
v -0.000000 0.441673 -0.255000
v 0.008660 0.428683 -0.247500
v -0.008660 0.428683 -0.247500
v -0.000000 0.492622 -0.131998
v 0.008660 0.478133 -0.128115
v -0.008660 0.478133 -0.128115
v -0.000000 0.510000 -0.000000
v 0.008660 0.495000 -0.000000
v -0.008660 0.495000 -0.000000
v -0.000000 0.492622 0.131998
v 0.008660 0.478133 0.128115
v -0.008660 0.478133 0.128115
v -0.000000 0.441673 0.255000
v 0.008660 0.428683 0.247500
v -0.008660 0.428683 0.247500
v -0.000000 0.360625 0.360624
v 0.008660 0.350018 0.350018
v -0.008660 0.350018 0.350018
v -0.000000 0.255000 0.441673
v 0.008660 0.247500 0.428683
v -0.008660 0.247500 0.428683
v -0.000000 0.131998 0.492622
v 0.008660 0.128116 0.478133
v -0.008660 0.128116 0.478133
v 0.000000 -0.000000 0.510000
v 0.008660 -0.000000 0.495000
v -0.008660 -0.000000 0.495000
v 0.000000 -0.131997 0.492622
v 0.008660 -0.128115 0.478133
v -0.008660 -0.128115 0.478133
v 0.000000 -0.255000 0.441673
v 0.008660 -0.247500 0.428683
v -0.008660 -0.247500 0.428683
v 0.000000 -0.360624 0.360625
v 0.008660 -0.350018 0.350018
v -0.008660 -0.350018 0.350018
v 0.000000 -0.441673 0.255000
v 0.008660 -0.428683 0.247500
v -0.008660 -0.428683 0.247500
v 0.000000 -0.492622 0.131998
v 0.008660 -0.478133 0.128115
v -0.008660 -0.478133 0.128115
vn 0.8642 -0.4989 -0.0657
vn -0.0000 0.9914 0.1305
vn -0.8642 -0.4989 -0.0657
vn 0.8642 -0.4649 -0.1926
vn -0.0000 0.9239 0.3827
vn -0.8642 -0.4649 -0.1926
vn 0.8642 -0.3992 -0.3063
vn -0.0000 0.7934 0.6088
vn -0.8642 -0.3992 -0.3063
vn 0.8642 -0.3063 -0.3992
vn -0.0000 0.6088 0.7934
vn -0.8642 -0.3063 -0.3992
vn 0.8642 -0.1926 -0.4649
vn -0.0000 0.3827 0.9239
vn -0.8642 -0.1926 -0.4649
vn 0.8642 -0.0657 -0.4989
vn -0.0000 0.1305 0.9914
vn -0.8642 -0.0657 -0.4989
vn 0.8642 0.0657 -0.4989
vn -0.0000 -0.1305 0.9914
vn -0.8642 0.0657 -0.4989
vn 0.8642 0.1926 -0.4649
vn -0.0000 -0.3827 0.9239
vn -0.8642 0.1926 -0.4649
vn 0.8642 0.3063 -0.3992
vn -0.0000 -0.6088 0.7934
vn -0.8642 0.3063 -0.3992
vn 0.8642 0.3992 -0.3063
vn -0.0000 -0.7934 0.6088
vn -0.8642 0.3992 -0.3063
vn 0.8642 0.4649 -0.1926
vn -0.0000 -0.9239 0.3827
vn -0.8642 0.4649 -0.1926
vn 0.8642 0.4989 -0.0657
vn -0.0000 -0.9914 0.1305
vn -0.8642 0.4989 -0.0657
vn 0.8642 0.4989 0.0657
vn -0.0000 -0.9914 -0.1305
vn -0.8642 0.4989 0.0657
vn 0.8642 0.4649 0.1926
vn -0.0000 -0.9239 -0.3827
vn -0.8642 0.4649 0.1926
vn 0.8642 0.3992 0.3063
vn -0.0000 -0.7934 -0.6088
vn -0.8642 0.3992 0.3063
vn 0.8642 0.3063 0.3992
vn -0.0000 -0.6088 -0.7934
vn -0.8642 0.3063 0.3992
vn 0.8642 0.1926 0.4649
vn -0.0000 -0.3827 -0.9239
vn -0.8642 0.1926 0.4649
vn 0.8642 0.0657 0.4989
vn -0.0000 -0.1305 -0.9914
vn -0.8642 0.0657 0.4989
vn 0.8642 -0.0657 0.4989
vn -0.0000 0.1305 -0.9914
vn -0.8642 -0.0657 0.4989
vn 0.8642 -0.1926 0.4649
vn -0.0000 0.3827 -0.9239
vn -0.8642 -0.1926 0.4649
vn 0.8642 -0.3063 0.3992
vn -0.0000 0.6088 -0.7934
vn -0.8642 -0.3063 0.3992
vn 0.8642 -0.3992 0.3063
vn -0.0000 0.7934 -0.6088
vn -0.8642 -0.3992 0.3063
vn 0.8642 -0.4649 0.1926
vn -0.0000 0.9239 -0.3827
vn -0.8642 -0.4649 0.1926
vn 0.8642 -0.4989 0.0657
vn -0.0000 0.9914 -0.1305
vn -0.8642 -0.4989 0.0657
vt 0.500000 0.666667
vt 0.500000 1.000000
vt 0.500000 0.000000
vt 0.500000 0.333333
vt 0.541667 0.666667
vt 0.541667 1.000000
vt 0.541667 0.000000
vt 0.541667 0.333333
vt 0.583333 0.666667
vt 0.583333 1.000000
vt 0.583333 0.000000
vt 0.583333 0.333333
vt 0.625000 0.666667
vt 0.625000 1.000000
vt 0.625000 0.000000
vt 0.625000 0.333333
vt 0.666667 0.666667
vt 0.666667 1.000000
vt 0.666667 0.000000
vt 0.666667 0.333333
vt 0.708333 0.666667
vt 0.708333 1.000000
vt 0.708333 0.000000
vt 0.708333 0.333333
vt 0.750000 0.666667
vt 0.750000 1.000000
vt 0.750000 0.000000
vt 0.750000 0.333333
vt 0.791667 0.666667
vt 0.791667 1.000000
vt 0.791667 0.000000
vt 0.791667 0.333333
vt 0.833333 0.666667
vt 0.833333 1.000000
vt 0.833333 0.000000
vt 0.833333 0.333333
vt 0.875000 0.666667
vt 0.875000 1.000000
vt 0.875000 0.000000
vt 0.875000 0.333333
vt 0.916667 0.666667
vt 0.916667 1.000000
vt 0.916667 0.000000
vt 0.916667 0.333333
vt 0.958333 0.666667
vt 0.958333 1.000000
vt 0.958333 0.000000
vt 0.958333 0.333333
vt 1.000000 0.666667
vt -0.000000 0.666667
vt 1.000000 1.000000
vt 1.000000 0.000000
vt -0.000000 1.000000
vt -0.000000 0.000000
vt 1.000000 0.333333
vt -0.000000 0.333333
vt 0.041667 0.666667
vt 0.041667 1.000000
vt 0.041667 0.000000
vt 0.041667 0.333333
vt 0.083333 0.666667
vt 0.083333 1.000000
vt 0.083333 0.000000
vt 0.083333 0.333333
vt 0.125000 0.666667
vt 0.125000 1.000000
vt 0.125000 0.000000
vt 0.125000 0.333333
vt 0.166667 0.666667
vt 0.166667 1.000000
vt 0.166667 0.000000
vt 0.166667 0.333333
vt 0.208333 0.666667
vt 0.208333 1.000000
vt 0.208333 0.000000
vt 0.208333 0.333333
vt 0.250000 0.666667
vt 0.250000 1.000000
vt 0.250000 0.000000
vt 0.250000 0.333333
vt 0.291667 0.666667
vt 0.291667 1.000000
vt 0.291667 0.000000
vt 0.291667 0.333333
vt 0.333333 0.666667
vt 0.333333 1.000000
vt 0.333333 0.000000
vt 0.333333 0.333333
vt 0.375000 0.666667
vt 0.375000 1.000000
vt 0.375000 0.000000
vt 0.375000 0.333333
vt 0.416667 0.666667
vt 0.416667 1.000000
vt 0.416667 0.000000
vt 0.416667 0.333333
vt 0.458333 0.666667
vt 0.458333 1.000000
vt 0.458333 0.000000
vt 0.458333 0.333333
s 0
f 1/1/1 4/5/1 5/6/1 2/2/1
f 2/3/2 5/7/2 6/8/2 3/4/2
f 3/4/3 6/8/3 4/5/3 1/1/3
f 4/5/4 7/9/4 8/10/4 5/6/4
f 5/7/5 8/11/5 9/12/5 6/8/5
f 6/8/6 9/12/6 7/9/6 4/5/6
f 7/9/7 10/13/7 11/14/7 8/10/7
f 8/11/8 11/15/8 12/16/8 9/12/8
f 9/12/9 12/16/9 10/13/9 7/9/9
f 10/13/10 13/17/10 14/18/10 11/14/10
f 11/15/11 14/19/11 15/20/11 12/16/11
f 12/16/12 15/20/12 13/17/12 10/13/12
f 13/17/13 16/21/13 17/22/13 14/18/13
f 14/19/14 17/23/14 18/24/14 15/20/14
f 15/20/15 18/24/15 16/21/15 13/17/15
f 16/21/16 19/25/16 20/26/16 17/22/16
f 17/23/17 20/27/17 21/28/17 18/24/17
f 18/24/18 21/28/18 19/25/18 16/21/18
f 19/25/19 22/29/19 23/30/19 20/26/19
f 20/27/20 23/31/20 24/32/20 21/28/20
f 21/28/21 24/32/21 22/29/21 19/25/21
f 22/29/22 25/33/22 26/34/22 23/30/22
f 23/31/23 26/35/23 27/36/23 24/32/23
f 24/32/24 27/36/24 25/33/24 22/29/24
f 25/33/25 28/37/25 29/38/25 26/34/25
f 26/35/26 29/39/26 30/40/26 27/36/26
f 27/36/27 30/40/27 28/37/27 25/33/27
f 28/37/28 31/41/28 32/42/28 29/38/28
f 29/39/29 32/43/29 33/44/29 30/40/29
f 30/40/30 33/44/30 31/41/30 28/37/30
f 31/41/31 34/45/31 35/46/31 32/42/31
f 32/43/32 35/47/32 36/48/32 33/44/32
f 33/44/33 36/48/33 34/45/33 31/41/33
f 34/45/34 37/49/34 38/51/34 35/46/34
f 35/47/35 38/52/35 39/55/35 36/48/35
f 36/48/36 39/55/36 37/49/36 34/45/36
f 37/50/37 40/57/37 41/58/37 38/53/37
f 38/54/38 41/59/38 42/60/38 39/56/38
f 39/56/39 42/60/39 40/57/39 37/50/39
f 40/57/40 43/61/40 44/62/40 41/58/40
f 41/59/41 44/63/41 45/64/41 42/60/41
f 42/60/42 45/64/42 43/61/42 40/57/42
f 43/61/43 46/65/43 47/66/43 44/62/43
f 44/63/44 47/67/44 48/68/44 45/64/44
f 45/64/45 48/68/45 46/65/45 43/61/45
f 46/65/46 49/69/46 50/70/46 47/66/46
f 47/67/47 50/71/47 51/72/47 48/68/47
f 48/68/48 51/72/48 49/69/48 46/65/48
f 49/69/49 52/73/49 53/74/49 50/70/49
f 50/71/50 53/75/50 54/76/50 51/72/50
f 51/72/51 54/76/51 52/73/51 49/69/51
f 52/73/52 55/77/52 56/78/52 53/74/52
f 53/75/53 56/79/53 57/80/53 54/76/53
f 54/76/54 57/80/54 55/77/54 52/73/54
f 55/77/55 58/81/55 59/82/55 56/78/55
f 56/79/56 59/83/56 60/84/56 57/80/56
f 57/80/57 60/84/57 58/81/57 55/77/57
f 58/81/58 61/85/58 62/86/58 59/82/58
f 59/83/59 62/87/59 63/88/59 60/84/59
f 60/84/60 63/88/60 61/85/60 58/81/60
f 61/85/61 64/89/61 65/90/61 62/86/61
f 62/87/62 65/91/62 66/92/62 63/88/62
f 63/88/63 66/92/63 64/89/63 61/85/63
f 64/89/64 67/93/64 68/94/64 65/90/64
f 65/91/65 68/95/65 69/96/65 66/92/65
f 66/92/66 69/96/66 67/93/66 64/89/66
f 67/93/67 70/97/67 71/98/67 68/94/67
f 68/95/68 71/99/68 72/100/68 69/96/68
f 69/96/69 72/100/69 70/97/69 67/93/69
f 70/97/70 1/1/70 2/2/70 71/98/70
f 71/99/71 2/3/71 3/4/71 72/100/71
f 72/100/72 3/4/72 1/1/72 70/97/72
